<?xml version="1.0" encoding="utf-8"?>
<!-- Generator: Adobe Illustrator 25.2.0, SVG Export Plug-In . SVG Version: 6.00 Build 0)  -->
<svg version="1.1" id="圖層_1" xmlns="http://www.w3.org/2000/svg" xmlns:xlink="http://www.w3.org/1999/xlink" x="0px" y="0px"
	 viewBox="0 0 40 40" style="enable-background:new 0 0 40 40;" xml:space="preserve">
<style type="text/css">
	.st0{fill:#FFE100;}
</style>
<g id="圖層_2_1_">
	<g id="圖層_1-2">
		<g id="bottom_bell">
			<path class="st0" d="M30.3,18.1c0-3-1.2-6-3.4-8.1c-0.2-0.2-0.5-0.2-0.7,0c0,0,0,0,0,0c-0.2,0.2-0.2,0.5,0,0.6c0,0,0,0,0,0
				c2,2,3.1,4.7,3.1,7.5c0,0.3,0.1,0.5,0.4,0.5s0.5-0.1,0.5-0.4C30.3,18.2,30.3,18.1,30.3,18.1z"/>
			<path class="st0" d="M13.7,10c-0.2-0.2-0.5-0.2-0.7,0c0,0,0,0,0,0c-2.2,2.2-3.4,5.1-3.3,8.1c0,0.3,0.2,0.5,0.5,0.5
				c0.3,0,0.5-0.2,0.5-0.5c0-2.8,1.1-5.5,3.1-7.5C13.9,10.4,13.9,10.1,13.7,10z"/>
			<path class="st0" d="M20,31.2c1.8,0,3.3-1.5,3.3-3.3c0-0.3-0.2-0.5-0.5-0.5c-0.3,0-0.5,0.2-0.5,0.5c-0.1,1.3-1.2,2.3-2.6,2.2
				c-1.2-0.1-2.2-1-2.2-2.2c0-0.3-0.2-0.5-0.5-0.5c-0.3,0-0.5,0.2-0.5,0.5l0,0C16.7,29.8,18.2,31.2,20,31.2z"/>
			<path class="st0" d="M20,11.6c-3.6,0-6.5,2.9-6.5,6.4v2.7c0,2-0.9,3.8-2.4,5.1c-0.6,0.5-0.7,1.4-0.1,2c0.3,0.3,0.7,0.5,1.1,0.5
				h15.8c0.8,0,1.4-0.7,1.4-1.4c0-0.4-0.2-0.8-0.5-1.1c-1.5-1.3-2.4-3.1-2.4-5.1v-2.7C26.5,14.5,23.6,11.6,20,11.6z"/>
			<path class="st0" d="M20.5,12.1V9.2c0-0.3-0.2-0.5-0.5-0.5c-0.3,0-0.5,0.2-0.5,0.5c0,0,0,0,0,0v2.9c0,0.3,0.2,0.5,0.5,0.5
				S20.5,12.4,20.5,12.1C20.5,12.1,20.5,12.1,20.5,12.1z"/>
		</g>
	</g>
</g>
</svg>
