<?xml version="1.0" encoding="utf-8"?>
<!-- Generator: Adobe Illustrator 25.2.0, SVG Export Plug-In . SVG Version: 6.00 Build 0)  -->
<svg version="1.1" id="圖層_1" xmlns="http://www.w3.org/2000/svg" xmlns:xlink="http://www.w3.org/1999/xlink" x="0px" y="0px"
	 viewBox="0 0 40 40" style="enable-background:new 0 0 40 40;" xml:space="preserve">
<style type="text/css">
	.st0{fill:none;stroke:#3B3B3B;stroke-linecap:round;stroke-miterlimit:10;}
</style>
<g id="圖層_2_1_">
	<g id="圖層_1-2">
		<g id="bottom_next">
			<path class="st0" d="M19.3,19.2l-7.5-5.1c-0.4-0.3-1-0.2-1.3,0.2c-0.1,0.1-0.2,0.3-0.2,0.5V25c0,0.5,0.4,0.9,0.9,0.9
				c0.2,0,0.4-0.1,0.5-0.2l7.5-5.1c0.4-0.3,0.5-0.9,0.2-1.3C19.4,19.4,19.3,19.3,19.3,19.2z"/>
			<path class="st0" d="M29.3,19.2l-7.5-5.1c-0.4-0.3-1-0.2-1.3,0.2c-0.1,0.1-0.2,0.3-0.2,0.5V25c0,0.5,0.4,0.9,0.9,0.9
				c0.2,0,0.4-0.1,0.5-0.2l7.5-5.1c0.4-0.3,0.5-0.9,0.2-1.3C29.4,19.4,29.4,19.3,29.3,19.2z"/>
		</g>
	</g>
</g>
</svg>
