<?xml version="1.0" encoding="utf-8"?>
<!-- Generator: Adobe Illustrator 25.2.0, SVG Export Plug-In . SVG Version: 6.00 Build 0)  -->
<svg version="1.1" id="圖層_1" xmlns="http://www.w3.org/2000/svg" xmlns:xlink="http://www.w3.org/1999/xlink" x="0px" y="0px"
	 viewBox="0 0 40 40" style="enable-background:new 0 0 40 40;" xml:space="preserve">
<style type="text/css">
	.st0{fill:none;stroke:#E6E6E6;stroke-linecap:round;stroke-linejoin:round;}
</style>
<g id="圖層_2_1_">
	<g id="圖層_1-2">
		<g id="bottom_calendar">
			<path class="st0" d="M10.2,16.3h19.7l0,0v13c0,1-0.8,1.8-1.8,1.8l0,0H12c-1,0-1.8-0.8-1.8-1.8V16.3L10.2,16.3z"/>
			<path class="st0" d="M25.1,28.3v-3.8c0-0.5,0.4-0.9,0.9-0.9h3.8L25.1,28.3z"/>
			<path class="st0" d="M15.3,11.4h-5.2v15.1c0,1,0.8,1.8,1.8,1.8c0,0,0,0,0,0h13.1l4.7-4.7V11.4H15.3"/>
			<line class="st0" x1="13.4" y1="8.9" x2="13.4" y2="13.9"/>
			<line class="st0" x1="17.8" y1="8.9" x2="17.8" y2="13.9"/>
			<line class="st0" x1="22.2" y1="8.9" x2="22.2" y2="13.9"/>
			<line class="st0" x1="26.6" y1="8.9" x2="26.6" y2="13.9"/>
		</g>
	</g>
</g>
</svg>
