<?xml version="1.0" encoding="utf-8"?>
<!-- Generator: Adobe Illustrator 25.2.0, SVG Export Plug-In . SVG Version: 6.00 Build 0)  -->
<svg version="1.1" id="圖層_1" xmlns="http://www.w3.org/2000/svg" xmlns:xlink="http://www.w3.org/1999/xlink" x="0px" y="0px"
	 viewBox="0 0 40 40" style="enable-background:new 0 0 40 40;" xml:space="preserve">
<style type="text/css">
	.st0{fill:none;stroke:#3B3B3B;stroke-linecap:round;stroke-miterlimit:10;}
</style>
<g id="圖層_2_1_">
	<g id="圖層_1-2">
		<g id="bottom_prev">
			<path class="st0" d="M20.8,20.8l7.5,5.1c0.4,0.3,1,0.2,1.3-0.2c0.1-0.1,0.2-0.3,0.2-0.5V14.9c0-0.5-0.4-0.9-0.9-0.9
				c-0.2,0-0.4,0.1-0.5,0.2l-7.5,5.1c-0.4,0.3-0.5,0.9-0.2,1.3C20.6,20.6,20.7,20.7,20.8,20.8z"/>
			<path class="st0" d="M10.7,20.8l7.5,5.1c0.4,0.3,1,0.2,1.3-0.2c0.1-0.1,0.2-0.3,0.2-0.5V14.9c0-0.5-0.4-0.9-0.9-0.9
				c-0.2,0-0.4,0.1-0.5,0.2l-7.5,5.1c-0.4,0.3-0.5,0.9-0.2,1.3C10.6,20.6,10.7,20.7,10.7,20.8z"/>
		</g>
	</g>
</g>
</svg>
