<svg xmlns="http://www.w3.org/2000/svg" viewBox="0 0 531.48 153.2"><defs><style>.cls-1{fill:#c9161d;}.cls-2{fill:#fff;}.cls-3{fill:#040000;}</style></defs><g id="圖層_2" data-name="圖層 2"><g id="圖層_1-2" data-name="圖層 1"><rect class="cls-1" y="3.45" width="304.97" height="112.16"/><path class="cls-2" d="M73.94,20.48c1.63,4.71-5,6.25-8,7.49-1,.43-2.1.87-3.13,1.35-.71.33-1.35.78-2.08,1.07a13,13,0,0,1-2.15.53q-2.45.54-4.84,1.2c-3.22.86-6.4,1.85-9.61,2.76q-2.73.79-5.5,1.49a7.62,7.62,0,0,1-5.62-1c-1.57-.93-1.67-2.4-2.39-3.91a1.74,1.74,0,0,1,.4-2.2c.18-.16,1-.12,1.24-.15l1.27-.19c.83-.14,1.65-.29,2.48-.41s1.67-.23,2.5-.29,1.69.16,2.49-.37a18.45,18.45,0,0,1,2.63-1.57,22,22,0,0,1,5.74-1.57c.69-.11,1.38-.21,2.07-.29a8,8,0,0,0,1.1-.09c.42-.12.53-.35.87-.61.7-.54,1.67-.55,2.37-1.08,2-1.59,4.63-2.19,6.22-4.18A6.91,6.91,0,0,1,66.08,17a8.17,8.17,0,0,1,4.49.57c1.29.71,2.87,1.38,3.37,2.9"/><path class="cls-2" d="M128.24,45a9.3,9.3,0,0,0,.38-2.34c0-.81-.49-1.52-.54-2.32-.05-.65.32-1.35-.44-1.7-1.59-1.13-3,.66-4.64.93a17.82,17.82,0,0,0-3.36,2.71,28.81,28.81,0,0,1-2.54,1.56c-.78.54-1.39,1.28-2.16,1.85-1.64,1.23-3.55,2-5.24,3.15-1.44,1-4.68.58-6.26.27-2.87-.55-5.39-2-8-3.05a20.52,20.52,0,0,1-3.46-1.52c-1.23-.79-1.9-2.17-3.13-3s-2.2-1.39-1.88-2.91c1-1.06,2.38-1.26,3.71-1.59,4.56-.86,9.53-.2,14-1.72,2.51-.66,5.16-1.26,7.61-2.12.65-.23,1.33-.55,2-.78a15.92,15.92,0,0,0,1.9-1.14c1.52-.77,3.12-.32,4.66-.74,2.16-.59,4.3-1.25,6.43-1.94,1.24-.4,2.45-.91,3.72-1.2a8.78,8.78,0,0,0,3-.8c2.18-1.4,4.94-.78,7.25-1.81a38.13,38.13,0,0,1,6.22-2.24,8.81,8.81,0,0,1,3.31-.26c1.87.25,3.81.71,5.67,1.1a15.11,15.11,0,0,1,4.61,1.4,4.44,4.44,0,0,1,1.77,1.92,5.44,5.44,0,0,1-.69,2.94c-.23.46-.49.9-.73,1.35-.8,1.45-2.09,1.79-3.59,2.19a9.47,9.47,0,0,1-4.61.2,5.84,5.84,0,0,1-2.29-1.12c-2.64-1.68-5.85-1.21-8.71-.47-.39.1-.78.22-1.17.35a3.34,3.34,0,0,0-1.15.48,5.75,5.75,0,0,1-1,.67c-.95.52-1.78,1-1.78,2.13,0,1.4-.23,3,.33,4.33,1.26,2.64-.39,5.29.8,7.94.53,3.58,1.59,8.61,1.46,12.71A118.81,118.81,0,0,0,141,78.64c.21,1.27.61,2.51.91,3.75.19.79.23,1.59.42,2.37a15.75,15.75,0,0,1,.72,4.67,57.14,57.14,0,0,1-.61,6c-.31,2.18-1,4.32-3.16,5.28-2.13,2.34-5.92,1.89-8.61,1a7.73,7.73,0,0,1-3.21-3.1,7.94,7.94,0,0,1-.47-2.13c-.42-1.82-1.17-3.55-.56-5.43C127.7,75.8,129,61.37,128.24,46.2"/><path class="cls-2" d="M54.21,38.49a17.55,17.55,0,0,1,2.71,4.9,2,2,0,0,0,2.42.37,7.54,7.54,0,0,0,2.25-.93c.64-.52,1.17-1.21,1.79-1.76a12.94,12.94,0,0,1,4.49-2.88A7.85,7.85,0,0,1,71,37.82c1.72.67,3.9.6,4.77,2.39A3.94,3.94,0,0,1,76,43.85c-1.52,3.11-5.29,4.24-7.94,6.22-2.12,1.13-5,1.92-6,4.31-.06,3.77,3,6.81,5.37,9,3.64,3.78,7,9.53,11.91,11.78a20.47,20.47,0,0,1,3.87,3,16.24,16.24,0,0,0,2.09,1.5c.83.48,1.74.66,2.55,1.2s1.84.8,2.48,1.56c.26.31.7.37,1,.55.71.38,1.19,1.15,2,1.32a5.25,5.25,0,0,1,1.31.19,10.41,10.41,0,0,1,1.22.82,29.25,29.25,0,0,0,5.81,3.11c.8.29,1.67.33,2.47.64a9.16,9.16,0,0,1,1.92,1.36c1.13.79,2.66,1.5,3.19,2.86a3.36,3.36,0,0,1-.68,2.93c-.82,1-2.31,1.25-3.51,1.44s-2.47.75-3.69.89c-.67.07-1.36.06-2,.11-1.45.11-2.9.26-4.35.41a74.32,74.32,0,0,1-8.82.55c-1.61,0-3.49.22-5-.62a54.74,54.74,0,0,1-5.61-4.25c-2.39-1.82-4-4.35-5.74-6.82s-3.51-5.21-5.31-7.78c-1.45-2.07-2.91-4.46-4.89-6.08-.7-.57-1.16-1.38-1.85-2a17.34,17.34,0,0,1-1.66-1.66C55.1,69.24,54,68.16,52.29,68A9.1,9.1,0,0,0,51,71.11c-.17.75-.13,1.52-.26,2.27s-.34,1.22-.45,1.85a12.69,12.69,0,0,1-1,4,7.67,7.67,0,0,0-.85,2.19,16.14,16.14,0,0,1-.93,2.48c-.18.44-.47.83-.67,1.26-.36.8-.56,1.65-1,2.44a26.76,26.76,0,0,1-1.53,2.57,33.77,33.77,0,0,1-3.78,4.66c-.78.81-1.6,1.58-2.44,2.33a13.31,13.31,0,0,1-2,1.68,11.77,11.77,0,0,1-2.51.91c-1.82.58-3.47,1.39-5.41,1.48a6.23,6.23,0,0,1-3.29-.81,15.18,15.18,0,0,0-1.67-.39,6.37,6.37,0,0,1-1.62-.88,6.94,6.94,0,0,1-1.53-1.43,2.32,2.32,0,0,1-.48-1c-.12-.81,0-1.08-.48-1.76-.66-.87-.3-1.45-.49-2.4a9.24,9.24,0,0,1-.35-1.35c-.07-.76.58-1.36,1-1.92A3.66,3.66,0,0,1,21,87.74,6.55,6.55,0,0,1,24,87.66a4.36,4.36,0,0,1,1.46.57c.73.45,1.05,1.12,2,.59.68-.4,1.08-1.14,1.68-1.65s.62-1,1.06-1.46a14.52,14.52,0,0,0,1.39-1.55,12.81,12.81,0,0,0,2-3.77c2.39-2.51,2.65-6.09,1.72-9.53-2.45-.2-5,1.06-7.61.2-1.72-1.26-4.24-1.92-5.1-3.84a8.26,8.26,0,0,1-2.38-4.63c.73-2,3.51-1.4,5.1-1.72,1.45-.6,3.17-.73,4.63-1.46.82-.41,1.79-.54,2.63-1s1.6-1,2.39-1.51a18.3,18.3,0,0,1,2.43-1.41c.91-.41,1.92-.54,2.81-1a13.74,13.74,0,0,0,2.14-1.55,5.3,5.3,0,0,0,2.23-4.65,13.74,13.74,0,0,1-.37-1.89,9.72,9.72,0,0,1,.27-2,20,20,0,0,0,.37-2c.12-1-.14-1.7.47-2.61A4.91,4.91,0,0,1,47.52,38a6.41,6.41,0,0,1,2.39-.13c.62,0,1.4-.43,2-.26.37.1.62.43,1,.53a3,3,0,0,1,1.27.39"/><path class="cls-2" d="M191.42,71.51l-.22,0a2.17,2.17,0,0,0-1-1.28,3.43,3.43,0,0,0-1.85-.46,3.14,3.14,0,0,0-2.6,1.17,5.17,5.17,0,0,0-.93,3.29,5.53,5.53,0,0,0,.95,3.48,3.29,3.29,0,0,0,2.75,1.19,4.37,4.37,0,0,0,1.57-.3,5,5,0,0,0,1.44-.84l.19,0-.36,1.3a6.94,6.94,0,0,1-1.55.54,7.68,7.68,0,0,1-1.69.18,5.86,5.86,0,0,1-4.23-1.46,5.42,5.42,0,0,1-1.51-4.07,5.09,5.09,0,0,1,1.63-4,6.23,6.23,0,0,1,4.36-1.49,7.66,7.66,0,0,1,1.71.19,9.51,9.51,0,0,1,1.73.58,7.71,7.71,0,0,0-.24.89A9.26,9.26,0,0,0,191.42,71.51Z"/><path class="cls-2" d="M192.5,76A3.57,3.57,0,0,1,196.39,72a3.83,3.83,0,0,1,2.86,1,3.94,3.94,0,0,1,1,2.89,3.89,3.89,0,1,1-7.76,0Zm2.28,0a5.85,5.85,0,0,0,.37,2.48,1.41,1.41,0,0,0,2.46,0A5.8,5.8,0,0,0,198,76a5.93,5.93,0,0,0-.37-2.49,1.41,1.41,0,0,0-2.46,0A5.93,5.93,0,0,0,194.78,76Z"/><path class="cls-2" d="M201.62,79.64c0-.82.06-1.54.07-2.17s0-1.13,0-1.54,0-.9,0-1.52,0-1.33-.07-2.16l.52,0,.57,0,.57,0,.5,0v1a3.16,3.16,0,0,1,1-.91,2.8,2.8,0,0,1,1.25-.28,2.31,2.31,0,0,1,1.33.37,2.14,2.14,0,0,1,.82,1.07,3.08,3.08,0,0,1,1.06-1.09,2.77,2.77,0,0,1,1.4-.35,2.53,2.53,0,0,1,1,.19,1.92,1.92,0,0,1,.77.55,2.16,2.16,0,0,1,.45,1,12,12,0,0,1,.12,2.1v1c0,.43,0,.88,0,1.35s0,.95.06,1.46l-.62,0-.55,0-.54,0-.59,0c.05-.67.08-1.3.1-1.87s0-1.11,0-1.61a6,6,0,0,0-.27-2.26,1,1,0,0,0-1-.54,1,1,0,0,0-1,.54,4.33,4.33,0,0,0-.29,1.89v2.45c0,.24,0,.65.05,1.25a1,1,0,0,1,0,.15l-.61,0-.55,0-.54,0-.6,0c0-.58.06-1.14.09-1.67s0-1.06,0-1.54a7.14,7.14,0,0,0-.27-2.55,1.15,1.15,0,0,0-1.93,0,4.27,4.27,0,0,0-.29,1.9v2.45c0,.24,0,.66.05,1.26a.32.32,0,0,1,0,.14l-.56,0-.55,0-.52,0Z"/><path class="cls-2" d="M215,79.64c0-.82.06-1.54.07-2.17s0-1.13,0-1.54,0-.9,0-1.52,0-1.33-.07-2.16l.52,0,.57,0,.57,0,.5,0v1a3.16,3.16,0,0,1,1-.91,2.8,2.8,0,0,1,1.25-.28,2.29,2.29,0,0,1,1.33.37,2.14,2.14,0,0,1,.82,1.07,3.08,3.08,0,0,1,1.06-1.09,2.77,2.77,0,0,1,1.4-.35,2.49,2.49,0,0,1,1,.19,1.92,1.92,0,0,1,.77.55,2.16,2.16,0,0,1,.45,1,12,12,0,0,1,.12,2.1v1c0,.43,0,.88,0,1.35s0,.95.06,1.46l-.62,0-.55,0-.54,0-.59,0c0-.67.08-1.3.1-1.87s0-1.11,0-1.61a6,6,0,0,0-.27-2.26,1,1,0,0,0-1-.54,1,1,0,0,0-1,.54,4.33,4.33,0,0,0-.29,1.89v2.45c0,.24,0,.65,0,1.25a1,1,0,0,1,0,.15l-.61,0-.55,0-.54,0-.6,0c0-.58.06-1.14.09-1.67s0-1.06,0-1.54a7.14,7.14,0,0,0-.27-2.55,1.15,1.15,0,0,0-1.93,0,4.42,4.42,0,0,0-.29,1.9v2.45c0,.24,0,.66.05,1.26a.32.32,0,0,1,0,.14l-.56,0-.55,0-.52,0Z"/><path class="cls-2" d="M228,76A3.57,3.57,0,0,1,231.84,72a3.83,3.83,0,0,1,2.86,1,3.94,3.94,0,0,1,1,2.89,3.56,3.56,0,0,1-3.89,3.88,3.82,3.82,0,0,1-2.85-1A3.86,3.86,0,0,1,228,76Zm2.28,0a6.05,6.05,0,0,0,.36,2.48,1.41,1.41,0,0,0,2.47,0,5.8,5.8,0,0,0,.37-2.47,5.93,5.93,0,0,0-.37-2.49,1.41,1.41,0,0,0-2.47,0A6.13,6.13,0,0,0,230.23,76Z"/><path class="cls-2" d="M237.07,79.64c0-.68.07-1.33.09-1.93s0-1.19,0-1.75,0-1.26,0-1.87,0-1.23-.09-1.84l.51,0,.56,0,.56,0,.48,0v1.06a3.07,3.07,0,0,1,1.06-.93,3,3,0,0,1,2.36-.11,2.14,2.14,0,0,1,.79.57,1.91,1.91,0,0,1,.37.74,7.36,7.36,0,0,1,.11,1.52c0,.1,0,.36,0,.79s0,.81,0,1.14c0,.48,0,.94,0,1.37s0,.84.08,1.24l-.61,0-.55,0-.54,0-.6,0c0-.43.06-1,.09-1.57s0-1.28,0-2a5.4,5.4,0,0,0-.27-2.17,1,1,0,0,0-1-.49,1.05,1.05,0,0,0-1,.58,4.63,4.63,0,0,0-.3,2c0,.43,0,1,0,1.58s0,1.33.06,2.13l-.57,0-.54,0-.54,0Z"/><path class="cls-2" d="M248.15,79.64q-.66-2.53-1.47-5.18t-1.75-5.39l.62.05h1.38l.62-.05c.29,1.3.62,2.59,1,3.88s.72,2.57,1.11,3.85l1.39-4c.43-1.27.85-2.51,1.24-3.72l.37.05h.82l.38-.05c.36,1.23.75,2.47,1.17,3.74s.85,2.56,1.31,3.88c.44-1.24.84-2.49,1.22-3.76s.72-2.55,1-3.86l.34.05h.75l.33-.05q-.83,2.36-1.7,5c-.58,1.75-1.19,3.61-1.81,5.58l-.41,0-.39,0-.37,0-.43,0c-.36-1.19-.74-2.41-1.16-3.65s-.86-2.52-1.34-3.83c-.46,1.17-.91,2.39-1.35,3.64s-.87,2.53-1.3,3.84l-.41,0-.37,0-.38,0Z"/><path class="cls-2" d="M262.57,76a3.26,3.26,0,0,0,.64,2.13,2.1,2.1,0,0,0,1.72.78,2.92,2.92,0,0,0,1-.18,3.34,3.34,0,0,0,1-.55l.15.11-.34.88a3.61,3.61,0,0,1-1.14.52,5.36,5.36,0,0,1-1.42.18,3.76,3.76,0,0,1-2.83-1.06,4.08,4.08,0,0,1-1-3,3.72,3.72,0,0,1,1-2.73,3.59,3.59,0,0,1,2.7-1,3.22,3.22,0,0,1,2.44.89,3.5,3.5,0,0,1,.85,2.54v.3c0,.07,0,.13,0,.19Zm0-.76h2.62a1.79,1.79,0,0,1,0-.21c0-.08,0-.13,0-.16a3.33,3.33,0,0,0-.31-1.59,1,1,0,0,0-.9-.53,1.17,1.17,0,0,0-1.06.61,3.38,3.38,0,0,0-.37,1.75Z"/><path class="cls-2" d="M272.45,78.67a2.41,2.41,0,0,1-.88.86,2.45,2.45,0,0,1-1.22.3,2,2,0,0,1-1.53-.58,2.16,2.16,0,0,1-.55-1.57,1.85,1.85,0,0,1,.39-1.21,2.62,2.62,0,0,1,1.23-.76l.79-.24a7,7,0,0,0,1.65-.67s0-.06,0-.1v-.16a1.56,1.56,0,0,0-.4-1.12,1.41,1.41,0,0,0-1.07-.42,1.65,1.65,0,0,0-.95.3,2.86,2.86,0,0,0-.79.9c-.07-.25-.13-.44-.18-.59s-.11-.28-.16-.4a5.36,5.36,0,0,1,1.36-.89,3.41,3.41,0,0,1,1.4-.29,3.18,3.18,0,0,1,2.14.64,2.32,2.32,0,0,1,.74,1.84v.07l0,2.7v.29a2.41,2.41,0,0,0,.2,1.22,1,1,0,0,0,.82.26h0v.39a3.8,3.8,0,0,1-.81.25,4,4,0,0,1-.81.09,1.42,1.42,0,0,1-.92-.28A1.45,1.45,0,0,1,272.45,78.67Zm-.07-3.1a3.2,3.2,0,0,0-1.55.67,1.94,1.94,0,0,0-.23,2.23.83.83,0,0,0,.71.34.93.93,0,0,0,.79-.37,1.75,1.75,0,0,0,.28-1.07Z"/><path class="cls-2" d="M276.51,79.64c0-.87.07-1.78.09-2.72s0-2,0-3,0-2.2,0-3.15-.05-1.84-.09-2.68c.25,0,.46.07.64.08a4.35,4.35,0,0,0,.51,0l.53,0,.63-.08c0,.87-.07,1.78-.1,2.73s0,2,0,3,0,2.2,0,3.15.06,1.84.1,2.68a4.86,4.86,0,0,0-.55-.07,5.92,5.92,0,0,0-1.19,0A5.54,5.54,0,0,0,276.51,79.64Z"/><path class="cls-2" d="M280.94,73.11h-1.05a.88.88,0,0,0,0-.16v-.24a1.7,1.7,0,0,0,0-.25c0-.06,0-.11,0-.16l.09,0c.37,0,.63,0,.79,0h.17c0-.08,0-.15,0-.23v-.37c0-.2,0-.42,0-.64s0-.51-.05-.85l1.06-.43c.35-.15.69-.31,1-.47l.16.13c0,.59-.05,1.08-.07,1.48s0,.69,0,.9v.48h.79l.72-.05a1.75,1.75,0,0,0,0,.25.76.76,0,0,0,0,.15,2.87,2.87,0,0,0,0,.36.08.08,0,0,1,0,0H283c0,.07,0,.19,0,.35,0,1.07-.05,1.83-.05,2.29v.62a8.28,8.28,0,0,0,.17,2.2.67.67,0,0,0,.68.42,4.27,4.27,0,0,0,.89-.16h0v.58a5.69,5.69,0,0,1-.95.33,3.42,3.42,0,0,1-.83.1,2,2,0,0,1-1.51-.52,2.07,2.07,0,0,1-.52-1.53s0-.47,0-1.32,0-1.7,0-2.53Z"/><path class="cls-2" d="M285.69,79.64c0-.54.07-1.21.09-2s0-2,0-3.48,0-2.87,0-3.78,0-1.67-.09-2.32l.59.09.53,0a5.07,5.07,0,0,0,.55,0L288,68c-.05.42-.09.87-.12,1.36s0,1,0,1.56v2.4a2.91,2.91,0,0,1,1-1,2.87,2.87,0,0,1,1.36-.32,2.82,2.82,0,0,1,1,.19,2,2,0,0,1,.78.57,1.81,1.81,0,0,1,.39.77,7.29,7.29,0,0,1,.11,1.49c0,.1,0,.36,0,.79s0,.81,0,1.14q0,.85,0,1.47c0,.41,0,.79.07,1.14l-.61,0-.54,0-.54,0-.6,0c0-.43.07-1,.09-1.57s0-1.28,0-2a5.4,5.4,0,0,0-.27-2.17,1,1,0,0,0-1-.49,1,1,0,0,0-1,.58,4.45,4.45,0,0,0-.31,2c0,.48,0,1,0,1.67s0,1.31.07,2l-.58,0-.55,0-.54,0Z"/><path class="cls-2" d="M182.71,96.9c.12-.79.23-1.47.32-2s.15-1,.18-1.22l1-7.31.32,0h.71l.32,0c.56,1.24,1.13,2.45,1.73,3.66s1.21,2.39,1.85,3.57c.61-1.14,1.21-2.31,1.8-3.52s1.16-2.44,1.73-3.71l.34,0h.74l.34,0,.88,7.4c.1.82.18,1.46.26,1.93s.15.88.23,1.24l-.7-.05-.61,0-.62,0-.66.05s0-.08,0-.15q-.07-1.64-.12-2l-.5-4.94c-.58,1.11-1.15,2.25-1.73,3.42s-1.17,2.4-1.78,3.68l-.12,0h-.39l-.12,0c-.6-1.26-1.18-2.46-1.76-3.6s-1.14-2.22-1.69-3.25l-.37,3.21,0,.12c-.18,1.67-.28,2.84-.28,3.52l-.33-.05-.3,0-.3,0Z"/><path class="cls-2" d="M200.77,95.93a2.41,2.41,0,0,1-.88.86,2.45,2.45,0,0,1-1.22.3,2,2,0,0,1-1.53-.58,2.16,2.16,0,0,1-.55-1.57,1.85,1.85,0,0,1,.39-1.21,2.62,2.62,0,0,1,1.23-.76l.79-.25a6.65,6.65,0,0,0,1.65-.66s0-.06,0-.1V91.8a1.56,1.56,0,0,0-.4-1.12,1.41,1.41,0,0,0-1.07-.42,1.65,1.65,0,0,0-.95.3,2.86,2.86,0,0,0-.79.9c-.07-.25-.13-.44-.18-.59s-.11-.28-.16-.4a5.36,5.36,0,0,1,1.36-.89,3.41,3.41,0,0,1,1.4-.29,3.18,3.18,0,0,1,2.14.64,2.32,2.32,0,0,1,.74,1.84v.07l0,2.7v.29a2.41,2.41,0,0,0,.2,1.22,1,1,0,0,0,.82.26h0v.39A3.8,3.8,0,0,1,203,97a4,4,0,0,1-.81.09,1.42,1.42,0,0,1-.92-.28A1.45,1.45,0,0,1,200.77,95.93Zm-.07-3.1a3.2,3.2,0,0,0-1.55.67,1.94,1.94,0,0,0-.23,2.23.83.83,0,0,0,.71.34.91.91,0,0,0,.79-.38,1.7,1.7,0,0,0,.28-1.06Z"/><path class="cls-2" d="M205.9,97.26v-.12a1.56,1.56,0,0,1-.73-.46,1.19,1.19,0,0,1-.26-.77,1.44,1.44,0,0,1,.4-1,3.3,3.3,0,0,1,1.15-.77V94a2.64,2.64,0,0,1-1.49-.75,2.08,2.08,0,0,1-.5-1.44,2.19,2.19,0,0,1,.86-1.81,3.63,3.63,0,0,1,2.33-.69l1,.07c.6,0,1.15.06,1.66.06H211l.74,0v.76l-1.29,0h-.24a1.62,1.62,0,0,1,.6.65,2.06,2.06,0,0,1,.2.93,2.19,2.19,0,0,1-.92,1.88,4.24,4.24,0,0,1-2.56.67h-.27a.74.74,0,0,0-.49.24.72.72,0,0,0-.19.5c0,.47.74.73,2.2.79h.09l.19,0a5,5,0,0,1,1.82.29,1.81,1.81,0,0,1,.71.74,2.37,2.37,0,0,1,.25,1.09,2.85,2.85,0,0,1-1.18,2.34,4.92,4.92,0,0,1-3.06.91,4.57,4.57,0,0,1-2.42-.54,1.63,1.63,0,0,1-.87-1.46,1.71,1.71,0,0,1,.39-1.14A2.61,2.61,0,0,1,205.9,97.26Zm.68.09a1.45,1.45,0,0,0-.59.56,1.61,1.61,0,0,0-.21.82,1.64,1.64,0,0,0,.53,1.27,2.06,2.06,0,0,0,1.43.48,2.84,2.84,0,0,0,1.65-.43,1.4,1.4,0,0,0,.6-1.2,1.26,1.26,0,0,0-.39-1,2,2,0,0,0-1.24-.38Zm0-5.6a2.79,2.79,0,0,0,.27,1.4,1.1,1.1,0,0,0,1.77,0,3.3,3.3,0,0,0,.27-1.55,2.2,2.2,0,0,0-.28-1.25.94.94,0,0,0-.84-.41,1,1,0,0,0-.88.48A2.45,2.45,0,0,0,206.58,91.75Z"/><path class="cls-2" d="M216.52,95.93a2.32,2.32,0,0,1-.87.86,2.48,2.48,0,0,1-1.22.3,2,2,0,0,1-1.53-.58,2.17,2.17,0,0,1-.56-1.57,1.8,1.8,0,0,1,.4-1.21A2.62,2.62,0,0,1,214,93l.78-.25a6.77,6.77,0,0,0,1.66-.66s0-.06,0-.1V91.8a1.52,1.52,0,0,0-.4-1.12,1.39,1.39,0,0,0-1.06-.42,1.6,1.6,0,0,0-1,.3,2.63,2.63,0,0,0-.79.9l-.19-.59c-.05-.14-.1-.28-.15-.4a5.19,5.19,0,0,1,1.36-.89,3.38,3.38,0,0,1,1.4-.29,3.15,3.15,0,0,1,2.13.64,2.29,2.29,0,0,1,.75,1.84v.07l-.05,2.7v.29a2.28,2.28,0,0,0,.21,1.22,1,1,0,0,0,.81.26h0v.39a4.07,4.07,0,0,1-.82.25,3.86,3.86,0,0,1-.81.09,1.39,1.39,0,0,1-.91-.28A1.41,1.41,0,0,1,216.52,95.93Zm-.07-3.1a3.25,3.25,0,0,0-1.55.67,1.63,1.63,0,0,0-.47,1.24,1.68,1.68,0,0,0,.24,1,.84.84,0,0,0,.72.34.94.94,0,0,0,.79-.38,1.76,1.76,0,0,0,.27-1.06Z"/><path class="cls-2" d="M219.73,96.9v-.25l2.71-4.11,1.44-2.21-.75,0h-.52c-.42,0-1.08,0-2,0h-.17a1,1,0,0,0,0-.17,1.63,1.63,0,0,0,0-.25,1.94,1.94,0,0,0,0-.27.78.78,0,0,0,0-.16l1.45,0,1.62,0,1.61,0,1.41,0v.18c-.37.55-.87,1.32-1.52,2.31s-1.52,2.34-2.61,4l.84,0h.52c.47,0,.93,0,1.37,0l1.32-.07c0,.09,0,.18,0,.25s0,.13,0,.19,0,.11,0,.18,0,.18,0,.31L225,96.85l-1.82,0-1.86,0Z"/><path class="cls-2" d="M227.81,86.72A1.16,1.16,0,0,1,229,85.55a1.09,1.09,0,0,1,.82.34,1.13,1.13,0,0,1,.34.83A1.14,1.14,0,0,1,229,87.88a1.14,1.14,0,0,1-1.17-1.16Zm0,10.18c0-.79.06-1.47.08-2.05s0-1.13,0-1.64,0-1.18,0-1.79,0-1.24-.08-1.91l.55,0h1.19l.55,0c0,.67-.06,1.3-.08,1.91s0,1.2,0,1.79,0,1.05,0,1.64,0,1.27.08,2.05l-.58-.05-.57,0-.56,0Z"/><path class="cls-2" d="M232.07,96.9c0-.68.07-1.33.09-1.93s0-1.2,0-1.75,0-1.26,0-1.87,0-1.24-.09-1.84l.5,0,.56,0,.56,0,.48,0v1.06a3.07,3.07,0,0,1,1.06-.93,2.92,2.92,0,0,1,1.33-.3,2.66,2.66,0,0,1,1,.19,2.06,2.06,0,0,1,.79.57,1.72,1.72,0,0,1,.37.74,7.32,7.32,0,0,1,.11,1.51c0,.11,0,.37,0,.8s0,.81,0,1.14,0,.94,0,1.37,0,.84.08,1.24l-.61-.05-.54,0-.55,0-.6.05c0-.43.07-1,.09-1.57s0-1.29,0-2a5.46,5.46,0,0,0-.26-2.17,1,1,0,0,0-1-.49,1,1,0,0,0-1,.58,4.45,4.45,0,0,0-.31,2c0,.43,0,1,0,1.58s0,1.33.06,2.13l-.56-.05-.55,0-.53,0Z"/><path class="cls-2" d="M242.63,93.22a3.26,3.26,0,0,0,.64,2.13,2.1,2.1,0,0,0,1.72.78,2.92,2.92,0,0,0,1-.18,3.34,3.34,0,0,0,1-.55l.15.11-.34.88a3.61,3.61,0,0,1-1.14.52,5.31,5.31,0,0,1-1.42.18A3.76,3.76,0,0,1,241.39,96a4.1,4.1,0,0,1-1-3,3.76,3.76,0,0,1,1-2.74,3.62,3.62,0,0,1,2.7-1,3.22,3.22,0,0,1,2.44.89,3.49,3.49,0,0,1,.85,2.53V93c0,.07,0,.13,0,.19Zm0-.76h2.62a1.79,1.79,0,0,1,0-.21c0-.08,0-.13,0-.16A3.22,3.22,0,0,0,245,90.5a1,1,0,0,0-.9-.53,1.18,1.18,0,0,0-1.06.61,3.36,3.36,0,0,0-.37,1.74Z"/><path class="cls-2" d="M214.72,54v1.67H202.51v2.76h-3.19l0-19c-.51.8-1,1.6-1.56,2.32l-1-.76a28.45,28.45,0,0,0,1.17-2.69l-1.71,1.57a24,24,0,0,0-2-3.45,25.32,25.32,0,0,1-2.36,3.92h.62v3.41h6V45.4h-6v1.3a29.91,29.91,0,0,1,5.77,4l-2.14,2.4a53.19,53.19,0,0,0-3.63-4.61V58.69h-3.13V49.17a28.91,28.91,0,0,1-6.79,7l-.76-1a31.57,31.57,0,0,0,6.79-9.77h-6V43.76h6.75V40.35h.95a25.86,25.86,0,0,0,2.65-9.3l2.94.73a17.89,17.89,0,0,1-1,3.16,15.5,15.5,0,0,1,3.27,2.72c1.27-3.7,1.71-7.63,2.25-12.93l3.31.65a36.4,36.4,0,0,1-1.31,6.94h11.8V34h-5.08v4.86h4.18v1.64h-4.18v5.66h4.21v1.64h-4.21V54ZM183.19,42l-1-.83a31.59,31.59,0,0,0,3.63-10.25l2.94.69a17.11,17.11,0,0,1-1.05,3.09,18.21,18.21,0,0,1,3.49,3l-2.07,2a39.21,39.21,0,0,0-2-3.6A25.26,25.26,0,0,1,183.19,42Zm15.25-11.33H182.79V29h8.1a42.06,42.06,0,0,0-4-3.64l.51-1.12a21.6,21.6,0,0,1,6,2.72L192,29h6.46ZM206,34h-3.53v4.86H206Zm0,6.5h-3.53v5.66H206Zm0,7.3h-3.53V54H206ZM207,31.81a52.43,52.43,0,0,0-1.89-6.68l1.16-.58A23.56,23.56,0,0,1,210,30.69Z"/><path class="cls-2" d="M234.73,32.54H222.64V30.9h5.56c-1.2-2.07-2.55-4.32-3.38-5.52l.91-.9a26.19,26.19,0,0,1,5.59,5l-1.89,1.45h5.3Zm-11,4.94V36H233.9v1.53Zm10.21,5H223.69V41H233.9Zm3.56,3.38,1.27.25c-.22,3.85-1,7.05-2.73,9.26l-2.43-1.81V58h-2.76V55.82h-4.18v2.65H223.8V46h9.77V53.2A13.49,13.49,0,0,0,237.46,45.87Zm-6.69,1.74h-4.14v6.61h4.14ZM243,32.54H235.5V30.9H243V24.8h3.27v6.1h7.62v1.64h-7.62v6.28h7.15v1.64H236.26V38.82H243Zm6.46,16.89c1.67,6,2,8.28-3.7,8.28-5.3,0-6-.4-6-4.32V43.94h3.2v8.87c0,1.45.32,1.92,2.61,1.92,2.62,0,2.65-.47,2.62-5.3Zm-7.12-8.86a25.1,25.1,0,0,1,6.47,4L246.65,47a65.62,65.62,0,0,0-5-5.37Zm12.86,11.65-2.87,1.42a56,56,0,0,0-3.05-7.88l1-.69A26.07,26.07,0,0,1,255.18,52.22Z"/><path class="cls-2" d="M171.21,58a7.68,7.68,0,0,0-2.07-1.67l-.32-.16h0a6.86,6.86,0,0,0-1.53-.82c-.84-.21-1.74-.11-2.59-.29-1.19-.25-2.38-.55-3.58-.74a10.39,10.39,0,0,0-4.54.15,4.24,4.24,0,0,0-1.93,1,2.85,2.85,0,0,0-.52,1.5,7.38,7.38,0,0,0-.19,1.55,11.14,11.14,0,0,0,1.7,5.54,17.62,17.62,0,0,0,1.79,2.51,12.62,12.62,0,0,0,2.13,2.19,5.24,5.24,0,0,1,1.79,1.68c.35.56.39.73,1,1a11.84,11.84,0,0,0,3.4.48,19,19,0,0,0,4.52-.13c1.11-.2,1.32-1,2.22-1.51s1.27-.57,1.66-1.5C175.94,64.6,173.78,61,171.21,58Z"/><path class="cls-1" d="M472,0a59.53,59.53,0,1,0,59.53,59.53A59.59,59.59,0,0,0,472,0Zm44.6,59.53A44.6,44.6,0,1,1,472,14.93,44.65,44.65,0,0,1,516.55,59.53Z"/><polygon class="cls-1" points="389.79 0 323.06 99.28 386.47 99.28 386.47 119.06 401.39 119.06 401.39 84.35 351.08 84.35 407.77 0 389.79 0"/><path class="cls-3" d="M9.5,134.88H1.35v-1.13h3.7c-.85-1.37-1.88-2.9-2.48-3.7l.6-.65a18.73,18.73,0,0,1,4,3.3L6,133.75H9.5Zm-.6,6.47H2.1v-1.07H8.9Zm-6.78-3.27V137h6.8v1.08Zm21.6,12.67L22.44,153a9.83,9.83,0,0,1-6.17-7.55H15.7a10.34,10.34,0,0,1-1.8,1.65v3.1c1.12-.28,2.15-.55,3-.85l.32.8A31.84,31.84,0,0,1,10,152.87L9.27,151c.85-.12,1.73-.25,2.58-.42V148.2a29.06,29.06,0,0,1-3,1.12l-.3-.65v3.73h-2v-1.73H4.27v2h-2v-8.82h6.3v4.57a13.06,13.06,0,0,0,4.55-3H9.25v-1.12h3.42V143H10.22V142h2.45v-1.22H9.47v-1.08h3.2V138.1h2.05v1.55H17.6V138.1h2v1.55h3.54v1.08H19.65V142h2.82V143H19.65v1.28h3.94v1.12H17.12a6.86,6.86,0,0,0,1.55,2.65,15.26,15.26,0,0,0,2.45-2.38l1.7,1.38a18.77,18.77,0,0,1-3.45,1.67A10.94,10.94,0,0,0,23.72,150.75ZM6.6,149.52V145H4.27v4.55Zm16.69-16.37H9.12V132h7.23c-1-.58-2.3-1.25-3.43-1.8l.25-.85a21.57,21.57,0,0,1,4.88,1.07l-.8,1.58h6ZM10,137.58v-3.45h5.72v3.45Zm1.9-1h2v-1.55h-2ZM14.72,142H17.6v-1.22H14.72Zm0,2.33H17.6V143H14.72Zm2.13-6.7v-3.45h5.72v3.45Zm1.85-1h2v-1.55h-2Z"/><path class="cls-3" d="M68.63,146.38A56.39,56.39,0,0,1,58.38,152l-1.05-2.58c.6-.12,1.28-.32,2-.52v-10H65v-5.75H58v-1.12h9.22v9.47H65v-1.47H61.61v8.19c2.35-.8,4.87-1.77,6.59-2.57Zm11.2,3.72-1.63,2.62a14.33,14.33,0,0,1-5.37-4.62,17,17,0,0,1-7.22,4.8l-.48-.8a16.73,16.73,0,0,0,6.6-5.83,20,20,0,0,1-2-6.44,14.66,14.66,0,0,1-2.15,3.2l-.72-.58c2-3.4,2.8-8.25,3.27-12.77l2.53.47a33.51,33.51,0,0,1-1.1,5h7.72v1.12H77a19.75,19.75,0,0,1-2.82,10.13A15.54,15.54,0,0,0,79.83,150.1Zm-7.13-5.57a20.76,20.76,0,0,0,1.88-8.28h-3.4c-.2.6-.43,1.2-.65,1.78A16.46,16.46,0,0,0,72.7,144.53Z"/><path class="cls-3" d="M134.63,152.77a24.11,24.11,0,0,1-9.52-2.15c-2.65,1.23-6.4,2-11.7,2.3l-.22-1a30.24,30.24,0,0,0,10-2.43,10.25,10.25,0,0,1-3.18-3.25,15.94,15.94,0,0,1-5.27,2.93l-.4-.8a15.06,15.06,0,0,0,6.07-5.92l2.2,1c-.25.35-.52.69-.8,1.05H134v1.12h-3.72a9.11,9.11,0,0,1-3.12,3.8,43.32,43.32,0,0,0,8.54.9Zm-19.42-8.6-1.7-.47a30.07,30.07,0,0,0,1.53-4.12l.72.15A26.52,26.52,0,0,1,115.21,144.17Zm0-6.69a20.18,20.18,0,0,0,2.35-3.08,20.55,20.55,0,0,1-3.12.83l-.53-1.78c.4,0,.8,0,1.2.05a22,22,0,0,0,1.48-3.95l1.87.63a17.74,17.74,0,0,1-2.3,3.3,13.17,13.17,0,0,0,2-.15c.25-.48.5-1,.75-1.55l1.75,1a19.45,19.45,0,0,1-4.2,4.68,23.61,23.61,0,0,0,2.75-.3l-.52-1.25.55-.38a10.11,10.11,0,0,1,2,3.15l-1.4.63c-.1-.43-.22-.88-.37-1.33a29.61,29.61,0,0,1-5.2,1.4l-.4-1.9C114.26,137.48,114.71,137.48,115.16,137.48Zm2,1.9a23.4,23.4,0,0,1,1.35,3.82l-1.7.43c0-1.13-.2-2.65-.35-4.08Zm2.28,3.25a31.39,31.39,0,0,0-1.23-3.45l.6-.33a12.37,12.37,0,0,1,2,3.05Zm8.87-9.8h-7.6V131.7h3.38a14.3,14.3,0,0,0-1.83-1.82l.43-.65a11.71,11.71,0,0,1,3.4,1.8l-.63.67h2.85Zm-3.57,15.82a8.38,8.38,0,0,0,2.8-3h-6.83A10.64,10.64,0,0,0,124.74,148.65ZM121.51,138h5.9v4.73h-5.9Zm5.83-3h-5.75v-1h5.75Zm-5.75,1h5.75v1h-5.75Zm1.67,5.7h2.4V139h-2.4Zm4.55,1.75a35.92,35.92,0,0,0,1.5-3.87l.78.15a29.91,29.91,0,0,1-.58,4.2Zm1.25-9.77a27.74,27.74,0,0,0,1.4-4.05l1.88.67a18.07,18.07,0,0,1-2.28,3.35c.75-.05,1.48-.12,2.15-.2.25-.5.5-1,.78-1.65l1.84,1a21,21,0,0,1-4.19,4.7,25.35,25.35,0,0,0,2.62-.25c-.15-.37-.32-.72-.5-1.07l.55-.38a10.11,10.11,0,0,1,2.22,3l-1.42.73a14.57,14.57,0,0,0-.5-1.43,23.77,23.77,0,0,1-5.3,1.33l-.37-1.93a12.79,12.79,0,0,0,1.42.08,19.71,19.71,0,0,0,2.23-3,19.14,19.14,0,0,1-3,.83l-.48-1.73C128.44,133.58,128.74,133.58,129.06,133.58Zm2.35,5.75a24,24,0,0,1,1.33,3.8l-1.68.37c0-1.12-.17-2.57-.35-4Zm2.2,3.42a20.33,20.33,0,0,0-1.2-3.55l.62-.32a17.36,17.36,0,0,1,2.15,3.15Z"/><path class="cls-3" d="M178.7,138.45a25.06,25.06,0,0,1-1.53,2h11.27V152.7h-2.25v-1.6h-9.42v1.72h-2.25v-9.57a23.83,23.83,0,0,1-4.92,3.5l-.48-.83a24.86,24.86,0,0,0,7.18-7.47H170v-1.12h7c.3-.55.57-1.13.82-1.7h-6.52V134.5h7a13.45,13.45,0,0,0,.55-1.7c-2.65.18-5.35.28-7.7.23l-.12-.9c7.37-.48,12.27-1.5,15.94-2.8l2.3,1.95a49.16,49.16,0,0,1-7.8,1.3,15.51,15.51,0,0,1-.59,1.92h8.94v1.13h-9.42c-.27.57-.57,1.15-.9,1.7h11.82v1.12Zm7.49,3.15h-9.42v2h9.42Zm0,3.1h-9.42v2.07h9.42Zm0,3.15h-9.42V150h9.42Z"/><path class="cls-3" d="M230.4,139.75v13.12h-2.2V142.3a21,21,0,0,1-2.67,2.28l-.6-.7a27,27,0,0,0,5.85-9.43l2.2,1.08A21.88,21.88,0,0,1,230.4,139.75Zm-4.64-2.37-.58-.68a21.9,21.9,0,0,0,4.65-7.35L232,130.5A22.46,22.46,0,0,1,225.76,137.38Zm21.81,6.25v1.12h-4v5.95c0,2.35-2.73,3.2-6.58.92l.3-.9c3.48.73,4,.63,4-.92v-5.05H231.3v-1.12h9.93v-2.18h-9.38v-1.12H247v1.12h-3.45v2.18Zm-9.34,5.19-1.88,1.2a47.5,47.5,0,0,0-2.3-4.35l.7-.57A17.77,17.77,0,0,1,238.23,148.82Zm6.57-10.14H234.15v-7.93H244.8Zm-2.15-6.8H236.3v2.3h6.35Zm0,3.42H236.3v2.25h6.35Z"/><path class="cls-3" d="M300.51,152.1a32.58,32.58,0,0,1-4.25.05c-2.45-.13-3.3-.63-3.3-2.55v-5.18h-1.5c-.4,3.35-2.45,7.13-9.92,8.78l-.35-.85c5.4-1.7,7.57-5,7.92-7.93h-4.2V130.65h14.57v13.77h-4.22v4.38c0,1,.37,1.17,1.5,1.25a14.93,14.93,0,0,0,2.75,0c1.45-.12,1.77-.5,1.72-4.85h.9C303.18,149.82,303.31,151.92,300.51,152.1Zm-13.35-17.32h10.07v-3H287.16Zm0,4.22h10.07v-3.1H287.16Zm0,4.3h10.07v-3.17H287.16Z"/></g></g></svg>