<svg xmlns="http://www.w3.org/2000/svg" viewBox="0 0 304.97 149.75"><defs><style>.cls-1{fill:#c9161d;}.cls-2{fill:#fff;}.cls-3{fill:#040000;}</style></defs><g id="圖層_2" data-name="圖層 2"><g id="圖層_1-2" data-name="圖層 1"><rect class="cls-1" width="304.97" height="112.16"/><path class="cls-2" d="M73.94,17c1.63,4.71-5,6.25-8,7.49-1,.43-2.1.87-3.13,1.35-.71.33-1.35.78-2.08,1.07a13,13,0,0,1-2.15.53q-2.45.54-4.84,1.2c-3.22.86-6.4,1.84-9.61,2.76q-2.73.8-5.5,1.49a7.62,7.62,0,0,1-5.62-1c-1.57-.93-1.67-2.4-2.39-3.92a1.74,1.74,0,0,1,.4-2.2c.18-.15,1-.11,1.24-.14l1.27-.19c.83-.14,1.65-.29,2.48-.42s1.67-.22,2.5-.28,1.69.16,2.49-.38a19.36,19.36,0,0,1,2.63-1.56,22,22,0,0,1,5.74-1.58l2.07-.29a6.71,6.71,0,0,0,1.1-.08c.42-.12.53-.35.87-.61.7-.54,1.67-.55,2.37-1.09C57.79,17.55,60.43,17,62,15a6.91,6.91,0,0,1,4.06-1.41,8.17,8.17,0,0,1,4.49.57c1.29.71,2.87,1.38,3.37,2.9"/><path class="cls-2" d="M128.24,41.49a9.15,9.15,0,0,0,.38-2.33c0-.81-.49-1.52-.54-2.32s.32-1.35-.44-1.7c-1.59-1.13-3,.66-4.64.93a17.82,17.82,0,0,0-3.36,2.71c-.77.65-1.72,1-2.54,1.56s-1.39,1.28-2.16,1.85c-1.64,1.23-3.55,2-5.24,3.15-1.44.95-4.68.58-6.26.27-2.87-.55-5.39-2-8-3A20.52,20.52,0,0,1,91.93,41c-1.23-.79-1.9-2.17-3.13-3s-2.2-1.39-1.88-2.91c1-1.06,2.38-1.26,3.71-1.59,4.56-.86,9.53-.2,14-1.72,2.51-.66,5.16-1.26,7.61-2.12.65-.23,1.33-.55,2-.78a14.77,14.77,0,0,0,1.9-1.15c1.52-.76,3.12-.31,4.66-.73,2.16-.59,4.3-1.25,6.43-1.94,1.24-.4,2.45-.91,3.72-1.21a8.54,8.54,0,0,0,3-.79c2.18-1.4,4.94-.78,7.25-1.81a39.13,39.13,0,0,1,6.22-2.25,9,9,0,0,1,3.31-.25c1.87.25,3.81.71,5.67,1.1A15.11,15.11,0,0,1,161,21.3a4.44,4.44,0,0,1,1.77,1.92,5.38,5.38,0,0,1-.69,2.93c-.23.47-.49.91-.73,1.36-.8,1.45-2.09,1.78-3.59,2.19a9.47,9.47,0,0,1-4.61.2,5.84,5.84,0,0,1-2.29-1.12c-2.64-1.68-5.85-1.21-8.71-.47-.39.1-.78.21-1.17.35a3.34,3.34,0,0,0-1.15.48,6.35,6.35,0,0,1-1,.67c-.95.52-1.78,1-1.78,2.13,0,1.4-.23,3,.33,4.32,1.26,2.65-.39,5.3.8,8,.53,3.58,1.59,8.61,1.46,12.71A118.81,118.81,0,0,0,141,75.19c.21,1.27.61,2.5.91,3.75.19.78.23,1.59.42,2.37A15.7,15.7,0,0,1,143,86a57.41,57.41,0,0,1-.61,6c-.31,2.18-1,4.32-3.16,5.28-2.13,2.34-5.92,1.89-8.61,1a7.64,7.64,0,0,1-3.21-3.09,8,8,0,0,1-.47-2.13c-.42-1.82-1.17-3.55-.56-5.44,1.32-15.22,2.65-29.66,1.86-44.82"/><path class="cls-2" d="M54.21,35a17.75,17.75,0,0,1,2.71,4.91,2,2,0,0,0,2.42.37,7.54,7.54,0,0,0,2.25-.93c.64-.52,1.17-1.21,1.79-1.77a13.06,13.06,0,0,1,4.49-2.87A7.85,7.85,0,0,1,71,34.37c1.72.66,3.9.6,4.77,2.39A3.94,3.94,0,0,1,76,40.4c-1.52,3.11-5.29,4.24-7.94,6.22-2.12,1.13-5,1.92-6,4.3-.06,3.78,3,6.82,5.37,9,3.64,3.77,7,9.53,11.91,11.78a20.47,20.47,0,0,1,3.87,3,16.24,16.24,0,0,0,2.09,1.5c.83.48,1.74.65,2.55,1.2s1.84.8,2.48,1.56c.26.31.7.37,1,.55.71.38,1.19,1.15,2,1.32a5.25,5.25,0,0,1,1.31.19,10.41,10.41,0,0,1,1.22.82,28.7,28.7,0,0,0,5.81,3.1c.8.3,1.67.34,2.47.65A9.16,9.16,0,0,1,106.08,87c1.13.79,2.66,1.5,3.19,2.86a3.36,3.36,0,0,1-.68,2.93c-.82,1-2.31,1.25-3.51,1.44s-2.47.75-3.69.89c-.67.07-1.36.06-2,.11-1.45.11-2.9.26-4.35.41a74.32,74.32,0,0,1-8.82.55c-1.61,0-3.49.21-5-.62a54.74,54.74,0,0,1-5.61-4.25c-2.39-1.82-4-4.35-5.74-6.82s-3.51-5.21-5.31-7.78c-1.45-2.07-2.91-4.46-4.89-6.08-.7-.57-1.16-1.38-1.85-2A17.34,17.34,0,0,1,56.17,67c-1.07-1.2-2.2-2.28-3.88-2.43A9.23,9.23,0,0,0,51,67.66c-.17.75-.13,1.52-.26,2.27s-.34,1.22-.45,1.85a12.69,12.69,0,0,1-1,4A7.72,7.72,0,0,0,48.46,78a15.87,15.87,0,0,1-.93,2.49c-.18.44-.47.83-.67,1.26-.36.8-.56,1.65-1,2.44a26.76,26.76,0,0,1-1.53,2.57,33.69,33.69,0,0,1-3.78,4.65c-.78.81-1.6,1.59-2.44,2.33a13.37,13.37,0,0,1-2,1.69,11.77,11.77,0,0,1-2.51.91c-1.82.58-3.47,1.39-5.41,1.48A6.15,6.15,0,0,1,24.94,97c-.42-.23-1.18-.19-1.67-.38a6.37,6.37,0,0,1-1.62-.88,7,7,0,0,1-1.53-1.44,2.22,2.22,0,0,1-.48-1c-.12-.8,0-1.07-.48-1.75-.66-.87-.3-1.45-.49-2.4a9.24,9.24,0,0,1-.35-1.35c-.07-.76.58-1.36,1-1.92A3.66,3.66,0,0,1,21,84.29,6.42,6.42,0,0,1,24,84.21a4.36,4.36,0,0,1,1.46.57c.73.45,1.05,1.12,2,.59.68-.4,1.08-1.14,1.68-1.65s.62-1,1.06-1.46a14.52,14.52,0,0,0,1.39-1.55,12.81,12.81,0,0,0,2-3.77c2.39-2.52,2.65-6.09,1.72-9.53-2.45-.2-5,1.06-7.61.2-1.72-1.26-4.24-1.92-5.1-3.84a8.28,8.28,0,0,1-2.38-4.64c.73-2,3.51-1.39,5.1-1.72,1.45-.59,3.17-.72,4.63-1.45.82-.41,1.79-.54,2.63-1s1.6-1,2.39-1.5a18.3,18.3,0,0,1,2.43-1.41c.91-.41,1.92-.54,2.81-1a13.06,13.06,0,0,0,2.14-1.54,5.31,5.31,0,0,0,2.23-4.65,13.74,13.74,0,0,1-.37-1.89,9.72,9.72,0,0,1,.27-2,19.72,19.72,0,0,0,.37-2c.12-1-.14-1.69.47-2.6a5,5,0,0,1,2.24-1.82,6.86,6.86,0,0,1,2.39-.13c.62,0,1.4-.42,2-.25.37.1.62.42,1,.53a3.08,3.08,0,0,1,1.27.38"/><path class="cls-2" d="M191.42,68.05l-.22,0a2.23,2.23,0,0,0-1-1.28,3.52,3.52,0,0,0-1.85-.45,3.14,3.14,0,0,0-2.6,1.17,5.15,5.15,0,0,0-.93,3.29,5.53,5.53,0,0,0,.95,3.48,3.32,3.32,0,0,0,2.75,1.19,4.37,4.37,0,0,0,1.57-.3,4.76,4.76,0,0,0,1.44-.85l.19,0-.36,1.3a6.94,6.94,0,0,1-1.55.54,7.68,7.68,0,0,1-1.69.18,5.86,5.86,0,0,1-4.23-1.46,5.42,5.42,0,0,1-1.51-4.07,5.09,5.09,0,0,1,1.63-4,6.23,6.23,0,0,1,4.36-1.49,7.66,7.66,0,0,1,1.71.19,8.8,8.8,0,0,1,1.73.58,7.71,7.71,0,0,0-.24.89A9.51,9.51,0,0,0,191.42,68.05Z"/><path class="cls-2" d="M192.5,72.5a3.9,3.9,0,0,1,1-2.88,4.5,4.5,0,0,1,5.72,0,3.94,3.94,0,0,1,1,2.89,3.89,3.89,0,1,1-7.76,0Zm2.28,0a5.85,5.85,0,0,0,.37,2.48,1.42,1.42,0,0,0,2.46,0A5.8,5.8,0,0,0,198,72.5a5.87,5.87,0,0,0-.37-2.49,1.41,1.41,0,0,0-2.46,0A5.9,5.9,0,0,0,194.78,72.5Z"/><path class="cls-2" d="M201.62,76.19c0-.82.06-1.55.07-2.17s0-1.14,0-1.54,0-.91,0-1.52,0-1.33-.07-2.16l.52,0,.57,0,.57,0,.5,0v1a3.16,3.16,0,0,1,1-.91,2.68,2.68,0,0,1,1.25-.28,2.31,2.31,0,0,1,1.33.37,2.15,2.15,0,0,1,.82,1.06A3,3,0,0,1,209.26,69a2.77,2.77,0,0,1,1.4-.35,2.71,2.71,0,0,1,1,.18,2,2,0,0,1,.77.56,2.17,2.17,0,0,1,.45.94,12.21,12.21,0,0,1,.12,2.1v1c0,.44,0,.89,0,1.35s0,1,.06,1.47l-.62,0a5.24,5.24,0,0,0-.55,0,4.87,4.87,0,0,0-.54,0l-.59,0c.05-.67.08-1.3.1-1.87s0-1.11,0-1.61a6,6,0,0,0-.27-2.26,1,1,0,0,0-1-.54,1,1,0,0,0-1,.54,4.33,4.33,0,0,0-.29,1.89v2.45c0,.23,0,.65.05,1.25a1,1,0,0,1,0,.15l-.61,0a5.15,5.15,0,0,0-.55,0,5.06,5.06,0,0,0-.54,0l-.6,0q0-.87.09-1.68c0-.54,0-1.05,0-1.53a7.14,7.14,0,0,0-.27-2.55,1.15,1.15,0,0,0-1.93,0,4.24,4.24,0,0,0-.29,1.9v2.45c0,.24,0,.66.05,1.26a.32.32,0,0,1,0,.14l-.56,0a5.06,5.06,0,0,0-.55,0,4.61,4.61,0,0,0-.52,0Z"/><path class="cls-2" d="M215,76.19c0-.82.06-1.55.07-2.17s0-1.14,0-1.54,0-.91,0-1.52,0-1.33-.07-2.16l.52,0,.57,0,.57,0,.5,0v1a3.16,3.16,0,0,1,1-.91,2.68,2.68,0,0,1,1.25-.28,2.29,2.29,0,0,1,1.33.37,2.15,2.15,0,0,1,.82,1.06A3,3,0,0,1,222.68,69a2.77,2.77,0,0,1,1.4-.35,2.67,2.67,0,0,1,1,.18,2,2,0,0,1,.77.56,2.17,2.17,0,0,1,.45.94,12.21,12.21,0,0,1,.12,2.1v1c0,.44,0,.89,0,1.35s0,1,.06,1.47l-.62,0a5.24,5.24,0,0,0-.55,0,4.87,4.87,0,0,0-.54,0l-.59,0c0-.67.08-1.3.1-1.87s0-1.11,0-1.61a6,6,0,0,0-.27-2.26,1,1,0,0,0-1-.54,1,1,0,0,0-1,.54,4.33,4.33,0,0,0-.29,1.89v2.45c0,.23,0,.65,0,1.25a1,1,0,0,1,0,.15l-.61,0a5.15,5.15,0,0,0-.55,0,5.06,5.06,0,0,0-.54,0l-.6,0q0-.87.09-1.68c0-.54,0-1.05,0-1.53a7.14,7.14,0,0,0-.27-2.55,1.15,1.15,0,0,0-1.93,0,4.39,4.39,0,0,0-.29,1.9v2.45c0,.24,0,.66.05,1.26a.32.32,0,0,1,0,.14l-.56,0a5.06,5.06,0,0,0-.55,0,4.7,4.7,0,0,0-.52,0Z"/><path class="cls-2" d="M228,72.5a4.06,4.06,0,0,1,6.75-2.89,3.94,3.94,0,0,1,1,2.89,3.56,3.56,0,0,1-3.89,3.88,3.82,3.82,0,0,1-2.85-1A3.86,3.86,0,0,1,228,72.5Zm2.28,0a6.05,6.05,0,0,0,.36,2.48,1.42,1.42,0,0,0,2.47,0,5.8,5.8,0,0,0,.37-2.47,5.87,5.87,0,0,0-.37-2.49,1.41,1.41,0,0,0-2.47,0A6.1,6.1,0,0,0,230.23,72.5Z"/><path class="cls-2" d="M237.07,76.19c0-.68.07-1.33.09-1.94s0-1.19,0-1.74,0-1.26,0-1.88,0-1.23-.09-1.83l.51,0,.56,0,.56,0,.48,0v1.06a3.07,3.07,0,0,1,1.06-.93,2.85,2.85,0,0,1,1.32-.3,2.68,2.68,0,0,1,1,.19,2.23,2.23,0,0,1,.79.56,2,2,0,0,1,.37.75,7.32,7.32,0,0,1,.11,1.51c0,.1,0,.37,0,.8s0,.81,0,1.14c0,.48,0,.94,0,1.37s0,.84.08,1.24l-.61,0a5.15,5.15,0,0,0-.55,0,4.87,4.87,0,0,0-.54,0l-.6,0c0-.44.06-1,.09-1.57s0-1.29,0-2a5.37,5.37,0,0,0-.27-2.17,1,1,0,0,0-1-.49,1.05,1.05,0,0,0-1,.58,4.63,4.63,0,0,0-.3,2c0,.43,0,1,0,1.57s0,1.34.06,2.14l-.57,0a4.87,4.87,0,0,0-.54,0,5.06,5.06,0,0,0-.54,0Z"/><path class="cls-2" d="M248.15,76.19q-.66-2.53-1.47-5.18c-.54-1.77-1.12-3.56-1.75-5.39l.62,0h1.38l.62,0c.29,1.3.62,2.59,1,3.88s.72,2.57,1.11,3.84c.49-1.4.95-2.74,1.39-4s.85-2.5,1.24-3.71l.37,0h.82l.38,0c.36,1.23.75,2.47,1.17,3.74s.85,2.56,1.31,3.88c.44-1.24.84-2.49,1.22-3.76s.72-2.55,1-3.86l.34,0h.75l.33,0q-.83,2.35-1.7,5c-.58,1.76-1.19,3.62-1.81,5.59l-.41,0a2.61,2.61,0,0,0-.39,0,2.36,2.36,0,0,0-.37,0l-.43,0c-.36-1.19-.74-2.41-1.16-3.65s-.86-2.53-1.34-3.84c-.46,1.18-.91,2.4-1.35,3.65s-.87,2.53-1.3,3.84l-.41,0a2.36,2.36,0,0,0-.37,0,2.48,2.48,0,0,0-.38,0Z"/><path class="cls-2" d="M262.57,72.51a3.28,3.28,0,0,0,.64,2.13,2.1,2.1,0,0,0,1.72.78,2.92,2.92,0,0,0,1-.18,3.34,3.34,0,0,0,1-.55l.15.11-.34.88a3.61,3.61,0,0,1-1.14.52,5.36,5.36,0,0,1-1.42.18,3.76,3.76,0,0,1-2.83-1.06,4.1,4.1,0,0,1-1-2.95,3.76,3.76,0,0,1,1-2.74,3.62,3.62,0,0,1,2.7-1,3.22,3.22,0,0,1,2.44.89,3.47,3.47,0,0,1,.85,2.53v.31c0,.07,0,.13,0,.19Zm0-.76h2.62a1.7,1.7,0,0,1,0-.21c0-.08,0-.14,0-.16a3.33,3.33,0,0,0-.31-1.59,1,1,0,0,0-.9-.53,1.17,1.17,0,0,0-1.06.61,3.36,3.36,0,0,0-.37,1.74Z"/><path class="cls-2" d="M272.45,75.22a2.41,2.41,0,0,1-.88.86,2.45,2.45,0,0,1-1.22.3,2,2,0,0,1-1.53-.58,2.16,2.16,0,0,1-.55-1.57,1.85,1.85,0,0,1,.39-1.21,2.62,2.62,0,0,1,1.23-.76l.79-.25a6.65,6.65,0,0,0,1.65-.66s0-.07,0-.1v-.17A1.55,1.55,0,0,0,272,70a1.41,1.41,0,0,0-1.07-.42,1.65,1.65,0,0,0-.95.3,2.93,2.93,0,0,0-.79.89c-.07-.24-.13-.43-.18-.58s-.11-.28-.16-.41a5.58,5.58,0,0,1,1.36-.88,3.41,3.41,0,0,1,1.4-.29,3.18,3.18,0,0,1,2.14.64,2.31,2.31,0,0,1,.74,1.83v.08l0,2.7v.29a2.34,2.34,0,0,0,.2,1.21,1,1,0,0,0,.82.27h0V76a4.47,4.47,0,0,1-.81.25,4,4,0,0,1-.81.09,1.48,1.48,0,0,1-.92-.28A1.45,1.45,0,0,1,272.45,75.22Zm-.07-3.1a3.3,3.3,0,0,0-1.55.66A2,2,0,0,0,270.6,75a.83.83,0,0,0,.71.33.9.9,0,0,0,.79-.37,1.7,1.7,0,0,0,.28-1.06Z"/><path class="cls-2" d="M276.51,76.19q.06-1.31.09-2.73c0-.94,0-2,0-3s0-2.2,0-3.15-.05-1.84-.09-2.68l.64.08.51,0,.53,0c.18,0,.39,0,.63-.07,0,.87-.07,1.78-.1,2.72s0,2,0,3,0,2.2,0,3.15.06,1.84.1,2.68l-.55-.08-.6,0-.59,0Z"/><path class="cls-2" d="M280.94,69.66h-1.05a.88.88,0,0,0,0-.16v-.24a1.7,1.7,0,0,0,0-.25c0-.06,0-.11,0-.16l.09,0c.37,0,.63.05.79.05h.17c0-.07,0-.14,0-.22v-.37c0-.21,0-.42,0-.65s0-.5-.05-.84l1.06-.43c.35-.15.69-.31,1-.47l.16.13c0,.59-.05,1.08-.07,1.47s0,.7,0,.91v.48h.79l.72,0a1.75,1.75,0,0,0,0,.25.76.76,0,0,0,0,.15,2.87,2.87,0,0,0,0,.36.08.08,0,0,1,0,0H283c0,.07,0,.19,0,.35,0,1.07-.05,1.83-.05,2.29v.62a8.28,8.28,0,0,0,.17,2.2.67.67,0,0,0,.68.42,4.27,4.27,0,0,0,.89-.16h0v.57a5.8,5.8,0,0,1-.95.34,3.42,3.42,0,0,1-.83.1,2,2,0,0,1-1.51-.52,2.1,2.1,0,0,1-.52-1.53s0-.47,0-1.33,0-1.7,0-2.52Z"/><path class="cls-2" d="M285.69,76.19c0-.54.07-1.21.09-2s0-2,0-3.49,0-2.86,0-3.77,0-1.67-.09-2.32l.59.09.53,0a5.07,5.07,0,0,0,.55,0l.59-.09c-.05.42-.09.87-.12,1.36s0,1,0,1.56v2.4a2.82,2.82,0,0,1,1-1,2.87,2.87,0,0,1,1.36-.32,2.63,2.63,0,0,1,1,.19,2.11,2.11,0,0,1,.78.56,1.91,1.91,0,0,1,.39.78,7.25,7.25,0,0,1,.11,1.48c0,.1,0,.37,0,.8s0,.81,0,1.14q0,.86,0,1.47c0,.41,0,.79.07,1.14l-.61,0a7.3,7.3,0,0,0-1.08,0l-.6,0c0-.44.07-1,.09-1.57s0-1.29,0-2a5.37,5.37,0,0,0-.27-2.17,1,1,0,0,0-1-.49,1,1,0,0,0-1,.58,4.45,4.45,0,0,0-.31,2c0,.48,0,1,0,1.67s0,1.31.07,2l-.58,0a5.15,5.15,0,0,0-.55,0,5.06,5.06,0,0,0-.54,0Z"/><path class="cls-2" d="M182.71,93.45c.12-.79.23-1.48.32-2s.15-1,.18-1.21l1-7.31.32.05h.71l.32-.05c.56,1.23,1.13,2.45,1.73,3.65s1.21,2.4,1.85,3.58c.61-1.14,1.21-2.32,1.8-3.52s1.16-2.44,1.73-3.71l.34.05h.74l.34-.05.88,7.4c.1.82.18,1.46.26,1.93s.15.88.23,1.24l-.7,0c-.21,0-.41,0-.61,0s-.4,0-.62,0l-.66,0s0-.09,0-.16q-.07-1.62-.12-2l-.5-4.93c-.58,1.11-1.15,2.25-1.73,3.42s-1.17,2.4-1.78,3.68l-.12,0h-.39l-.12,0c-.6-1.26-1.18-2.46-1.76-3.6s-1.14-2.22-1.69-3.25l-.37,3.21,0,.12c-.18,1.67-.28,2.84-.28,3.52l-.33,0a1.62,1.62,0,0,0-.3,0,1.51,1.51,0,0,0-.3,0Z"/><path class="cls-2" d="M200.77,92.48a2.41,2.41,0,0,1-.88.86,2.45,2.45,0,0,1-1.22.3,2,2,0,0,1-1.53-.58,2.16,2.16,0,0,1-.55-1.57,1.85,1.85,0,0,1,.39-1.21,2.62,2.62,0,0,1,1.23-.76l.79-.25a6.65,6.65,0,0,0,1.65-.66s0-.07,0-.1v-.17a1.55,1.55,0,0,0-.4-1.11,1.41,1.41,0,0,0-1.07-.42,1.71,1.71,0,0,0-.95.29,3.1,3.1,0,0,0-.79.9c-.07-.24-.13-.43-.18-.58s-.11-.28-.16-.41a5.58,5.58,0,0,1,1.36-.88,3.41,3.41,0,0,1,1.4-.29,3.18,3.18,0,0,1,2.14.64,2.31,2.31,0,0,1,.74,1.83v.08l0,2.7v.29a2.34,2.34,0,0,0,.2,1.21,1,1,0,0,0,.82.27h0v.39a4.47,4.47,0,0,1-.81.25,4,4,0,0,1-.81.09,1.43,1.43,0,0,1-.92-.29A1.39,1.39,0,0,1,200.77,92.48Zm-.07-3.1a3.3,3.3,0,0,0-1.55.66,2,2,0,0,0-.23,2.24.83.83,0,0,0,.71.33.9.9,0,0,0,.79-.37,1.7,1.7,0,0,0,.28-1.06Z"/><path class="cls-2" d="M205.9,93.81v-.12a1.56,1.56,0,0,1-.73-.46,1.21,1.21,0,0,1-.26-.77,1.42,1.42,0,0,1,.4-1,3.17,3.17,0,0,1,1.15-.77v-.19a2.64,2.64,0,0,1-1.49-.75,2.09,2.09,0,0,1-.5-1.45,2.21,2.21,0,0,1,.86-1.81,3.69,3.69,0,0,1,2.33-.68l1,.06c.6,0,1.15.07,1.66.07H211l.74,0v.76l-1.29,0h-.24a1.62,1.62,0,0,1,.6.65,2.06,2.06,0,0,1,.2.93,2.19,2.19,0,0,1-.92,1.88,4.24,4.24,0,0,1-2.56.67h-.27a.74.74,0,0,0-.49.24.72.72,0,0,0-.19.5c0,.47.74.73,2.2.79h.28a5.18,5.18,0,0,1,1.82.3,1.81,1.81,0,0,1,.71.74,2.34,2.34,0,0,1,.25,1.09,2.85,2.85,0,0,1-1.18,2.34,4.92,4.92,0,0,1-3.06.91,4.57,4.57,0,0,1-2.42-.54,1.63,1.63,0,0,1-.87-1.46,1.71,1.71,0,0,1,.39-1.14A2.61,2.61,0,0,1,205.9,93.81Zm.68.09a1.45,1.45,0,0,0-.59.56,1.59,1.59,0,0,0-.21.82,1.64,1.64,0,0,0,.53,1.27,2.06,2.06,0,0,0,1.43.48,2.84,2.84,0,0,0,1.65-.43,1.4,1.4,0,0,0,.6-1.2,1.26,1.26,0,0,0-.39-1,2,2,0,0,0-1.24-.38Zm0-5.6a2.81,2.81,0,0,0,.27,1.4,1,1,0,0,0,.88.44.94.94,0,0,0,.89-.47,3.25,3.25,0,0,0,.27-1.55,2.19,2.19,0,0,0-.28-1.24.94.94,0,0,0-.84-.41,1,1,0,0,0-.88.48A2.41,2.41,0,0,0,206.58,88.3Z"/><path class="cls-2" d="M216.52,92.48a2.32,2.32,0,0,1-.87.86,2.48,2.48,0,0,1-1.22.3,2,2,0,0,1-1.53-.58,2.17,2.17,0,0,1-.56-1.57,1.8,1.8,0,0,1,.4-1.21,2.62,2.62,0,0,1,1.23-.76l.78-.25a6.77,6.77,0,0,0,1.66-.66s0-.07,0-.1v-.17a1.51,1.51,0,0,0-.4-1.11,1.39,1.39,0,0,0-1.06-.42,1.66,1.66,0,0,0-1,.29,2.84,2.84,0,0,0-.79.9l-.19-.58-.15-.41a5.4,5.4,0,0,1,1.36-.88,3.38,3.38,0,0,1,1.4-.29,3.15,3.15,0,0,1,2.13.64,2.28,2.28,0,0,1,.75,1.83v.08l-.05,2.7v.29a2.21,2.21,0,0,0,.21,1.21,1,1,0,0,0,.81.27h0v.39a4.84,4.84,0,0,1-.82.25,3.86,3.86,0,0,1-.81.09,1.4,1.4,0,0,1-.91-.29A1.35,1.35,0,0,1,216.52,92.48Zm-.07-3.1a3.35,3.35,0,0,0-1.55.66,1.64,1.64,0,0,0-.47,1.24,1.69,1.69,0,0,0,.24,1,.83.83,0,0,0,.72.33.93.93,0,0,0,.79-.37,1.76,1.76,0,0,0,.27-1.06Z"/><path class="cls-2" d="M219.73,93.45V93.2q.87-1.31,2.71-4.12l1.44-2.2-.75,0h-.52c-.42,0-1.08,0-2,.05h-.17a1,1,0,0,0,0-.17,1.63,1.63,0,0,0,0-.25,1.94,1.94,0,0,0,0-.27.88.88,0,0,0,0-.17l1.45,0h3.23l1.41,0v.19c-.37.55-.87,1.32-1.52,2.31s-1.52,2.34-2.61,4l.84,0h.52c.47,0,.93,0,1.37,0l1.32-.07c0,.09,0,.17,0,.24s0,.14,0,.19,0,.12,0,.19,0,.18,0,.31l-1.47,0c-.52,0-1.13,0-1.82,0s-1.31,0-1.86,0Z"/><path class="cls-2" d="M227.81,83.27A1.16,1.16,0,0,1,229,82.09a1.1,1.1,0,0,1,.82.35,1.12,1.12,0,0,1,.34.83A1.16,1.16,0,0,1,229,84.43a1.16,1.16,0,0,1-1.17-1.16Zm0,10.18c0-.79.06-1.48.08-2.06s0-1.12,0-1.63,0-1.18,0-1.79,0-1.25-.08-1.92l.55,0h1.19l.55,0c0,.67-.06,1.31-.08,1.92s0,1.2,0,1.79,0,1,0,1.64,0,1.27.08,2l-.58,0a5.43,5.43,0,0,0-.57,0,5.33,5.33,0,0,0-.56,0Z"/><path class="cls-2" d="M232.07,93.45c0-.68.07-1.33.09-1.94s0-1.19,0-1.75,0-1.25,0-1.87,0-1.23-.09-1.84l.5,0h1.12l.48,0v1.07a3.07,3.07,0,0,1,1.06-.93,2.92,2.92,0,0,1,1.33-.3,2.66,2.66,0,0,1,1,.19,2.15,2.15,0,0,1,.79.56,1.82,1.82,0,0,1,.37.75,7.32,7.32,0,0,1,.11,1.51c0,.1,0,.37,0,.8s0,.81,0,1.14,0,.94,0,1.37,0,.84.08,1.24l-.61,0a5.06,5.06,0,0,0-.54,0,5.15,5.15,0,0,0-.55,0l-.6,0c0-.44.07-1,.09-1.57s0-1.29,0-2a5.43,5.43,0,0,0-.26-2.17,1,1,0,0,0-1-.49,1,1,0,0,0-1,.58,4.43,4.43,0,0,0-.31,2c0,.44,0,1,0,1.58s0,1.34.06,2.14l-.56,0a5.15,5.15,0,0,0-.55,0,4.78,4.78,0,0,0-.53,0Z"/><path class="cls-2" d="M242.63,89.77a3.28,3.28,0,0,0,.64,2.13,2.1,2.1,0,0,0,1.72.78,2.92,2.92,0,0,0,1-.18,3.34,3.34,0,0,0,1-.55l.15.11-.34.88a3.61,3.61,0,0,1-1.14.52,5.31,5.31,0,0,1-1.42.18,3.76,3.76,0,0,1-2.83-1.06,4.1,4.1,0,0,1-1-3,3.76,3.76,0,0,1,1-2.74,3.62,3.62,0,0,1,2.7-1,3.25,3.25,0,0,1,2.44.88,3.51,3.51,0,0,1,.85,2.54v.31c0,.07,0,.13,0,.18Zm0-.76h2.62a1.62,1.62,0,0,1,0-.21c0-.08,0-.14,0-.16a3.22,3.22,0,0,0-.31-1.59,1,1,0,0,0-.9-.53,1.18,1.18,0,0,0-1.06.61,3.36,3.36,0,0,0-.37,1.74Z"/><path class="cls-2" d="M214.72,50.59v1.67H202.51V55h-3.19l0-19c-.51.8-1,1.6-1.56,2.32l-1-.76a28.45,28.45,0,0,0,1.17-2.69l-1.71,1.56a25.11,25.11,0,0,0-2-3.45,25,25,0,0,1-2.36,3.93h.62v3.41h6v1.63h-6v1.31a29.91,29.91,0,0,1,5.77,4l-2.14,2.4A55,55,0,0,0,192.49,45V55.24h-3.13V45.72a29.09,29.09,0,0,1-6.79,7.05l-.76-1.06a31.33,31.33,0,0,0,6.79-9.77h-6V40.31h6.75V36.9h.95A25.86,25.86,0,0,0,193,27.6l2.94.72a17.39,17.39,0,0,1-1,3.16,15.83,15.83,0,0,1,3.27,2.73c1.27-3.71,1.71-7.63,2.25-12.93l3.31.65a36.55,36.55,0,0,1-1.31,6.94h11.8V30.5h-5.08v4.87h4.18V37h-4.18v5.67h4.21v1.64h-4.21v6.28ZM183.19,38.53l-1-.83a31.59,31.59,0,0,0,3.63-10.25l2.94.69a17.38,17.38,0,0,1-1.05,3.09,18.18,18.18,0,0,1,3.49,3l-2.07,2a37.93,37.93,0,0,0-2-3.6A25.26,25.26,0,0,1,183.19,38.53ZM198.44,27.2H182.79V25.56h8.1a41.92,41.92,0,0,0-4-3.63l.51-1.12a21.6,21.6,0,0,1,6,2.72l-1.45,2h6.46Zm7.6,3.3h-3.53v4.87H206Zm0,6.5h-3.53v5.67H206Zm0,7.31h-3.53v6.28H206Zm.94-16a52.43,52.43,0,0,0-1.89-6.68l1.16-.58A23.52,23.52,0,0,1,210,27.23Z"/><path class="cls-2" d="M234.73,29.09H222.64V27.45h5.56c-1.2-2.07-2.55-4.32-3.38-5.52l.91-.91a26.52,26.52,0,0,1,5.59,5l-1.89,1.45h5.3Zm-11,4.94V32.5H233.9V34Zm10.21,5H223.69V37.51H233.9Zm3.56,3.38,1.27.25c-.22,3.85-1,7-2.73,9.26l-2.43-1.81v4.39h-2.76V52.37h-4.18V55H223.8V42.56h9.77v7.19A13.52,13.52,0,0,0,237.46,42.42Zm-6.69,1.74h-4.14v6.61h4.14ZM243,29.09H235.5V27.45H243v-6.1h3.27v6.1h7.62v1.64h-7.62v6.28h7.15V37H236.26V35.37H243ZM249.44,46c1.67,6,2,8.28-3.7,8.28-5.3,0-6-.4-6-4.32V40.49h3.2v8.86c0,1.46.32,1.93,2.61,1.93,2.62,0,2.65-.47,2.62-5.3Zm-7.12-8.87a25.41,25.41,0,0,1,6.47,4l-2.14,2.43a64,64,0,0,0-5-5.37Zm12.86,11.66-2.87,1.42a55.48,55.48,0,0,0-3.05-7.88l1-.69A25.92,25.92,0,0,1,255.18,48.77Z"/><path class="cls-2" d="M171.21,54.58a7.68,7.68,0,0,0-2.07-1.67l-.32-.16h0a6.47,6.47,0,0,0-1.53-.82c-.84-.22-1.74-.11-2.59-.29-1.19-.26-2.38-.55-3.58-.74a10.39,10.39,0,0,0-4.54.15,4.24,4.24,0,0,0-1.93,1,2.85,2.85,0,0,0-.52,1.49,7.56,7.56,0,0,0-.19,1.56,11.11,11.11,0,0,0,1.7,5.53,17.16,17.16,0,0,0,1.79,2.52,12.62,12.62,0,0,0,2.13,2.19A5.24,5.24,0,0,1,161.35,67c.35.56.39.72,1,1a11.83,11.83,0,0,0,3.4.47,18.48,18.48,0,0,0,4.52-.12c1.11-.2,1.32-1,2.22-1.51s1.27-.57,1.66-1.5C175.94,61.14,173.78,57.59,171.21,54.58Z"/><path class="cls-3" d="M9.5,131.43H1.35V130.3h3.7c-.85-1.37-1.88-2.9-2.48-3.7l.6-.65a18.73,18.73,0,0,1,4,3.3L6,130.3H9.5Zm-.6,6.47H2.1v-1.08H8.9Zm-6.78-3.27v-1.08h6.8v1.08Zm21.6,12.67-1.28,2.2A9.83,9.83,0,0,1,16.27,142H15.7a10.34,10.34,0,0,1-1.8,1.65v3.1c1.12-.28,2.15-.55,3-.85l.32.8A31.84,31.84,0,0,1,10,149.42l-.73-1.9c.85-.12,1.73-.25,2.58-.42v-2.35a29.06,29.06,0,0,1-3,1.12l-.3-.65V149h-2v-1.73H4.27v2h-2V140.4h6.3V145a13.06,13.06,0,0,0,4.55-3H9.25v-1.13h3.42v-1.27H10.22V138.5h2.45v-1.23H9.47V136.2h3.2v-1.55h2.05v1.55H17.6v-1.55h2v1.55h3.54v1.07H19.65v1.23h2.82v1.05H19.65v1.27h3.94V142H17.12a6.86,6.86,0,0,0,1.55,2.65,15.26,15.26,0,0,0,2.45-2.38l1.7,1.38a18.77,18.77,0,0,1-3.45,1.67A10.94,10.94,0,0,0,23.72,147.3ZM6.6,146.07v-4.55H4.27v4.55ZM23.29,129.7H9.12v-1.12h7.23c-1-.58-2.3-1.25-3.43-1.8l.25-.85A21.57,21.57,0,0,1,18.05,127l-.8,1.58h6ZM10,134.13v-3.45h5.72v3.45Zm1.9-.95h2v-1.55h-2Zm2.82,5.32H17.6v-1.23H14.72Zm0,2.32H17.6v-1.27H14.72Zm2.13-6.69v-3.45h5.72v3.45Zm1.85-.95h2v-1.55h-2Z"/><path class="cls-3" d="M68.63,142.92a55.84,55.84,0,0,1-10.25,5.58l-1.05-2.58c.6-.12,1.28-.32,2-.52V135.35H65V129.6H58v-1.12h9.22V138H65v-1.47H61.61v8.19c2.35-.8,4.87-1.77,6.59-2.57Zm11.2,3.73-1.63,2.62a14.33,14.33,0,0,1-5.37-4.62,17,17,0,0,1-7.22,4.8l-.48-.8a16.73,16.73,0,0,0,6.6-5.83,20.07,20.07,0,0,1-2-6.45,14.19,14.19,0,0,1-2.15,3.2l-.72-.57c2-3.4,2.8-8.25,3.27-12.77l2.53.47a33.51,33.51,0,0,1-1.1,5h7.72v1.12H77a19.69,19.69,0,0,1-2.82,10.12A15.43,15.43,0,0,0,79.83,146.65Zm-7.13-5.58a20.75,20.75,0,0,0,1.88-8.27h-3.4c-.2.6-.43,1.2-.65,1.77A16.36,16.36,0,0,0,72.7,141.07Z"/><path class="cls-3" d="M134.63,149.32a24.11,24.11,0,0,1-9.52-2.15c-2.65,1.23-6.4,2.05-11.7,2.3l-.22-1a30.24,30.24,0,0,0,10-2.43,10.25,10.25,0,0,1-3.18-3.25,15.94,15.94,0,0,1-5.27,2.93l-.4-.8a15.08,15.08,0,0,0,6.07-5.93l2.2,1c-.25.35-.52.7-.8,1H134v1.13h-3.72a9.11,9.11,0,0,1-3.12,3.8,43.32,43.32,0,0,0,8.54.9Zm-19.42-8.6-1.7-.47a29.78,29.78,0,0,0,1.53-4.13l.72.16A26.66,26.66,0,0,1,115.21,140.72Zm0-6.69a20.18,20.18,0,0,0,2.35-3.08,20.55,20.55,0,0,1-3.12.83l-.53-1.78c.4,0,.8,0,1.2.05a22,22,0,0,0,1.48-4l1.87.63a17.74,17.74,0,0,1-2.3,3.3,13.17,13.17,0,0,0,2-.15c.25-.48.5-1,.75-1.55l1.75,1a19.45,19.45,0,0,1-4.2,4.68,23.61,23.61,0,0,0,2.75-.3l-.52-1.25.55-.38a10.11,10.11,0,0,1,2,3.15l-1.4.62c-.1-.42-.22-.87-.37-1.32a29.61,29.61,0,0,1-5.2,1.4l-.4-1.9C114.26,134,114.71,134,115.16,134Zm2,1.89a23.81,23.81,0,0,1,1.35,3.83l-1.7.42c0-1.12-.2-2.65-.35-4.07Zm2.28,3.25a32,32,0,0,0-1.23-3.44l.6-.33a12.19,12.19,0,0,1,2,3Zm8.87-9.79h-7.6v-1.13h3.38a14.3,14.3,0,0,0-1.83-1.82l.43-.65a11.71,11.71,0,0,1,3.4,1.8l-.63.67h2.85Zm-3.57,15.82a8.38,8.38,0,0,0,2.8-3h-6.83A10.64,10.64,0,0,0,124.74,145.2Zm-3.23-10.7h5.9v4.72h-5.9Zm5.83-3h-5.75v-1.05h5.75Zm-5.75.95h5.75v1.05h-5.75Zm1.67,5.7h2.4v-2.58h-2.4Zm4.55,1.75a35.92,35.92,0,0,0,1.5-3.87l.78.14a29.69,29.69,0,0,1-.58,4.2Zm1.25-9.77a27.74,27.74,0,0,0,1.4-4l1.88.67a18.07,18.07,0,0,1-2.28,3.35c.75,0,1.48-.12,2.15-.2.25-.5.5-1.05.78-1.65l1.84,1a21,21,0,0,1-4.19,4.7,25.35,25.35,0,0,0,2.62-.25c-.15-.37-.32-.72-.5-1.07l.55-.38a10.11,10.11,0,0,1,2.22,2.95l-1.42.72c-.12-.42-.3-.92-.5-1.42a24.28,24.28,0,0,1-5.3,1.32l-.37-1.92a12.79,12.79,0,0,0,1.42.08,19.71,19.71,0,0,0,2.23-3,19.14,19.14,0,0,1-3,.83l-.48-1.73C128.44,130.13,128.74,130.13,129.06,130.13Zm2.35,5.74a24.3,24.3,0,0,1,1.33,3.8l-1.68.38a40,40,0,0,0-.35-4Zm2.2,3.43a19.79,19.79,0,0,0-1.2-3.55l.62-.32a17.64,17.64,0,0,1,2.15,3.14Z"/><path class="cls-3" d="M178.7,135c-.48.7-1,1.37-1.53,2h11.27v12.22h-2.25v-1.6h-9.42v1.72h-2.25V139.8a23.83,23.83,0,0,1-4.92,3.5l-.48-.83A25,25,0,0,0,176.3,135H170v-1.12h7c.3-.55.57-1.13.82-1.7h-6.52v-1.13h7a13.45,13.45,0,0,0,.55-1.7c-2.65.18-5.35.28-7.7.23l-.12-.9c7.37-.48,12.27-1.5,15.94-2.8l2.3,2a49.16,49.16,0,0,1-7.8,1.3,15.51,15.51,0,0,1-.59,1.92h8.94v1.13h-9.42c-.27.57-.57,1.15-.9,1.7h11.82V135Zm7.49,3.15h-9.42v2h9.42Zm0,3.1h-9.42v2.07h9.42Zm0,3.15h-9.42v2.12h9.42Z"/><path class="cls-3" d="M230.4,136.3v13.12h-2.2V138.85a20.08,20.08,0,0,1-2.67,2.27l-.6-.7a26.93,26.93,0,0,0,5.85-9.42l2.2,1.08A21.88,21.88,0,0,1,230.4,136.3Zm-4.64-2.37-.58-.68a21.9,21.9,0,0,0,4.65-7.35l2.17,1.15A22.46,22.46,0,0,1,225.76,133.93Zm21.81,6.24v1.13h-4v5.95c0,2.35-2.73,3.2-6.58.92l.3-.9c3.48.73,4,.63,4-.92v-5H231.3v-1.13h9.93V138h-9.38v-1.13H247V138h-3.45v2.17Zm-9.34,5.2-1.88,1.2a47.5,47.5,0,0,0-2.3-4.35l.7-.57A17.52,17.52,0,0,1,238.23,145.37Zm6.57-10.14H234.15V127.3H244.8Zm-2.15-6.8H236.3v2.3h6.35Zm0,3.42H236.3v2.25h6.35Z"/><path class="cls-3" d="M300.51,148.65a32.58,32.58,0,0,1-4.25,0c-2.45-.13-3.3-.63-3.3-2.55V141h-1.5c-.4,3.35-2.45,7.13-9.92,8.78l-.35-.85c5.4-1.7,7.57-5,7.92-7.93h-4.2V127.2h14.57V141h-4.22v4.38c0,1,.37,1.17,1.5,1.25a14.93,14.93,0,0,0,2.75,0c1.45-.12,1.77-.5,1.72-4.85h.9C303.18,146.37,303.31,148.47,300.51,148.65Zm-13.35-17.32h10.07v-3H287.16Zm0,4.22h10.07v-3.1H287.16Zm0,4.3h10.07v-3.18H287.16Z"/></g></g></svg>