<svg xmlns="http://www.w3.org/2000/svg" viewBox="0 0 264.14 91.12"><defs><style>.cls-1{fill:#d60c18;}</style></defs><g id="圖層_2" data-name="圖層 2"><g id="圖層_1-2" data-name="圖層 1"><path class="cls-1" d="M67,63.15h63.14V0H67ZM69,2h59.18V61.16H69Z"/><path class="cls-1" d="M201,0V63.15h63.15V0Zm61.16,61.16H203V2h59.17Z"/><rect class="cls-1" x="38.79" y="33.84" width="3.64" height="6.94"/><rect class="cls-1" x="37.82" y="8.21" width="3.52" height="9.02"/><rect class="cls-1" x="46" y="8.21" width="3.69" height="9.02"/><rect class="cls-1" x="29.36" y="8.21" width="3.81" height="9.02"/><path class="cls-1" d="M0,63.15H63.15V0H0ZM13.45,18.71a43.23,43.23,0,0,1-8,6.53l-.57-.65a55.94,55.94,0,0,0,7-10.39A31.41,31.41,0,0,0,6.3,5.72l.62-.59a30,30,0,0,1,6.7,5.69,61.24,61.24,0,0,0,3.07-7.71l6.77,3.4s-4.55,6.21-6.71,8.64c3.12,5.46,4.14,11.75,4.43,18.63v1.16c2.16-3.31,6.07-13.31,6.19-13.58,0,0-3.12,0-3.12,0V6.49H49.18l2-1.38h4.3L55.32,19.8H49.69v-.91H29.36v1.69c0,.05,4.22,1.1,5.11,1.32L32.88,24l-.59-.13-.43.68H50.15L52,23.08h4.63v4.29c-.11,20.34-.46,27.48-2.89,30.2-1.59,1.78-3.92,2.08-6.88,2.08a4.43,4.43,0,0,0-1-3.32c-.85-.95-2.5-1.54-4.6-2v-.89c1.93.18,4.88.42,6,.42a2.13,2.13,0,0,0,1.76-.66c1.36-1.54,1.59-9.79,1.7-27H30.89A53.2,53.2,0,0,1,26,32.24h7.59v-5.4l6.59.65c-.12.54-.46,1-1.42,1.19v3.56H42l1.8-1.36h3.51l0,12.48H42.42v-.93H38.79V47l3.75-.35A16.07,16.07,0,0,0,41,43.87l.51-.36c12,3.09,6.7,12.22,2.27,8.13A12.16,12.16,0,0,0,43.1,48c-3.8,1.49-17.53,6.36-17.53,6.36l-2.63-6.18c2.22-.12,6.08-.41,10.68-.77V42.44h-4v.93H24.81V33.07a23,23,0,0,1-3.3,2.67l-.33-.6v.6c.11,7.83-.57,15.72-3.24,19.94-1.3,2-3.75,2.84-7.16,2.84,0-2.37-.34-4-1-4.8a7.71,7.71,0,0,0-3.41-1.9V51s3.52.35,5.28.35a1.68,1.68,0,0,0,1.65-.77c1.48-2.37,1.87-8.9,1.87-15.6V33.19a41.26,41.26,0,0,1-11.53,8.6l-.51-.53A47.09,47.09,0,0,0,14.42,23,37.15,37.15,0,0,0,13.45,18.71Z"/><rect class="cls-1" x="29.64" y="33.84" width="3.98" height="6.94"/><path class="cls-1" d="M224.23,11V7.7h-5.47l-1.5,1.53h-9.09l.46,1.72Z"/><path class="cls-1" d="M224.23,22.54h-5.47l-1.5,1.53h-9.09l.46,1.72h15.6Z"/><path class="cls-1" d="M250.8,21.76h-5.47l-1.5,1.53H233.18l.46,1.72H250.8Z"/><path class="cls-1" d="M208.63,33.61h15.6V30.36h-5.47l-1.5,1.53h-9.09Z"/><path class="cls-1" d="M227.57,18.09V14.84H222.1l-1.5,1.53H205.26l.46,1.72Z"/><path class="cls-1" d="M218.14,39.87H208.06V58.94h5.8V56h5.45v1.41H225V38.62h-5.15Zm1.17,14.44h-5.45V41.59h5.45Z"/><path class="cls-1" d="M224.78,27l.39.6c7.5-4.22,15.45-11.57,19.15-19.35a34.09,34.09,0,0,0,12,17.63,7.15,7.15,0,0,1,4.6-6V19c-5.68-2.07-12.67-5.75-15.85-11.39,1.54-.18,2.1-.53,2.27-1.24l-8.74-2.08C237.16,11.21,230.68,21.36,224.78,27Z"/><path class="cls-1" d="M250.8,29.8H228.18V58.94h5.63V45.05h2.78V57.38H241V45.05h2.9V57.38h4.54v-4a2.84,2.84,0,0,1,2.16,1.83,14.39,14.39,0,0,1,.51,4.51c5.68-.53,6.42-3,6.42-7.35V28.47h-5.19ZM236.59,43.33h-2.78V32.51h2.78Zm7.33,0H241V32.51h2.9Zm7.72,8.34c0,.66-.17.95-.79.95s-1.88-.06-2.39-.11V45.05h3.18Zm0-8.34h-3.18V32.51h3.18Z"/><path class="cls-1" d="M134,63.15h63.15V0H134Zm25.36-22.68V56.1h-5.71V54.68h-5.45v3h-5.8V38.59h10.08l1.72-1.25h5.16ZM151.6,30.6l1.49-1.53h5.47v3.25H143l-.45-1.72Zm-9.09-7.81h9.09l1.49-1.53h5.47v3.25H143ZM185.91,8.5l1.8-1.32H193v3.05H179.6V35.56h6.31l1.81-1.34H193v3.06H179.6V57.66h-6.42V37.28h-12.4l-.45-1.72h12.85V10.23h-11l-.45-1.73Zm6.58,9.08a1.88,1.88,0,0,1-2.16,1.07,82.52,82.52,0,0,1-8.52,12.76l-.51-.24c1.14-5.16,2.33-13.29,2.73-17Zm-28.91-3,.74-.24c11.87,9.91,5.85,21.42,1,15.72A51.49,51.49,0,0,0,163.58,14.56Zm-12-6.62,1.49-1.53h5.47V9.66H143l-.45-1.72Zm3.34,7.15,1.49-1.53h5.47v3.25H140.05l-.45-1.72Z"/><rect class="cls-1" x="148.19" y="40.31" width="5.45" height="12.72"/><path class="cls-1" d="M114.75,54.89H103.56c5-9.37,9.66-21.6,12.27-29.61,1.42-.06,2-.65,2.21-1.42l-9.94-2.37c-1.25,9.55-3.75,23.43-6.19,33.4H72.77l.46,1.72H124.8V52.05h-7Z"/><path class="cls-1" d="M87.77,49.13c7.16,7.66,12.61-10.62-3.81-26.75l-.79.23C85.67,30.68,88,40.59,87.77,49.13Z"/><path class="cls-1" d="M123.24,18.52V14.94h-7l-1.5,1.86H102.65V9.07l1-.78V4.38H95.78V16.8H75.15l.45,1.72Z"/><path class="cls-1" d="M211.77,71.86a8.71,8.71,0,0,0-6.44,2.63A8.9,8.9,0,0,0,202.72,81a9.06,9.06,0,0,0,2.52,6.63,8.69,8.69,0,0,0,6.48,2.57,17.41,17.41,0,0,0,4-.43V87.91a15.31,15.31,0,0,1-4,.54,6.69,6.69,0,0,1-5-2,7.42,7.42,0,0,1-2-5.4,7.28,7.28,0,0,1,2.05-5.31,6.78,6.78,0,0,1,5-2.1,6.52,6.52,0,0,1,5,1.93,7.46,7.46,0,0,1,1.83,5.34,8.23,8.23,0,0,1-.82,3.69h-2V76.14h-2.08l-.16.62a4.75,4.75,0,0,0-2.53-.9,3.45,3.45,0,0,0-2.82,1.47A6,6,0,0,0,207,81.14a6.49,6.49,0,0,0,.95,3.72,2.94,2.94,0,0,0,2.52,1.38A3.65,3.65,0,0,0,212,86a6.42,6.42,0,0,0,1.58-1.12l.36,1.33H219a9.6,9.6,0,0,0,1.56-5.35,8.88,8.88,0,0,0-2.43-6.48A8.5,8.5,0,0,0,211.77,71.86Zm1.75,11.6a3.06,3.06,0,0,1-1.92.74c-1.48,0-2.22-1-2.22-3.13a3.85,3.85,0,0,1,.67-2.44,2.31,2.31,0,0,1,1.92-.86,3.56,3.56,0,0,1,1.55.35Z"/><path class="cls-1" d="M234.52,81.19h8.13V79.08h-8.78c.07-.73.09-1.47.09-2.13V74.5h7.78V72.37H224.3V74.5h7.51v2.42a18.38,18.38,0,0,1-.12,2.16H223.5v2.11h7.79c-.84,3-3,6.06-8.44,8.15a7.35,7.35,0,0,1,1.36,1.76C229.52,89,232,86,233.09,82.86A14.47,14.47,0,0,0,242,91.08a8.38,8.38,0,0,1,1.4-1.92A12.86,12.86,0,0,1,234.52,81.19Z"/><path class="cls-1" d="M244,74.48h8.25V91.12h2.2V79.94a50,50,0,0,1,6.6,4.27l1.51-1.89a52.08,52.08,0,0,0-7.74-4.53l-.37.44V74.48h9.17V72.37H244Z"/></g></g></svg>