<?xml version="1.0" encoding="utf-8"?>
<!-- Generator: Adobe Illustrator 25.0.0, SVG Export Plug-In . SVG Version: 6.00 Build 0)  -->
<svg version="1.1" id="圖層_1" xmlns="http://www.w3.org/2000/svg" xmlns:xlink="http://www.w3.org/1999/xlink" x="0px" y="0px"
	 viewBox="0 0 305 112.2" style="enable-background:new 0 0 305 112.2;" xml:space="preserve">
<style type="text/css">
	.st0{fill:#C9161D;}
	.st1{fill:#FFFFFF;}
</style>
<g id="圖層_2_1_">
	<g id="圖層_1-2">
		<rect class="st0" width="305" height="112.2"/>
		<path class="st1" d="M73.9,17c1.6,4.7-5,6.2-8,7.5c-1,0.4-2.1,0.9-3.1,1.4c-0.7,0.3-1.3,0.8-2.1,1.1c-0.7,0.2-1.4,0.4-2.2,0.5
			c-1.6,0.4-3.2,0.8-4.8,1.2c-3.2,0.9-6.4,1.8-9.6,2.8c-1.8,0.5-3.7,1-5.5,1.5c-1.9,0.4-3.9,0-5.6-1c-1.6-0.9-1.7-2.4-2.4-3.9
			c-0.4-0.7-0.2-1.7,0.4-2.2c0.2-0.1,1-0.1,1.2-0.1l1.3-0.2c0.8-0.1,1.7-0.3,2.5-0.4s1.7-0.2,2.5-0.3s1.7,0.2,2.5-0.4
			c0.8-0.6,1.7-1.1,2.6-1.6c1.8-0.8,3.8-1.3,5.7-1.6l2.1-0.3c0.4,0,0.7,0,1.1-0.1c0.4-0.1,0.5-0.4,0.9-0.6c0.7-0.5,1.7-0.5,2.4-1.1
			c2-1.6,4.7-2.2,6.2-4.2c1.2-0.9,2.6-1.4,4.1-1.4c1.5-0.2,3.1,0,4.5,0.6C71.8,14.9,73.4,15.5,73.9,17"/>
		<path class="st1" d="M128.2,41.5c0.2-0.8,0.4-1.5,0.4-2.3c0-0.8-0.5-1.5-0.5-2.3s0.3-1.3-0.4-1.7c-1.6-1.1-3,0.7-4.6,0.9
			c-1.2,0.8-2.4,1.7-3.4,2.7c-0.8,0.7-1.7,1-2.5,1.6s-1.4,1.3-2.2,1.8c-1.6,1.2-3.6,2-5.2,3.2c-1.4,1-4.7,0.6-6.3,0.3
			c-2.9-0.5-5.4-2-8-3c-1.2-0.4-2.4-1-3.5-1.6c-1.2-0.8-1.9-2.2-3.1-3s-2.2-1.4-1.9-2.9c1-1.1,2.4-1.3,3.7-1.6
			c4.6-0.9,9.5-0.2,14-1.7c2.5-0.7,5.2-1.3,7.6-2.1c0.7-0.2,1.3-0.5,2-0.8c0.7-0.3,1.3-0.7,1.9-1.1c1.5-0.8,3.1-0.3,4.7-0.7
			c2.2-0.6,4.3-1.2,6.4-1.9c1.2-0.4,2.5-0.9,3.7-1.2c1-0.1,2.1-0.3,3-0.8c2.2-1.4,4.9-0.8,7.2-1.8c2-0.9,4.1-1.7,6.2-2.2
			c1.1-0.3,2.2-0.4,3.3-0.2c1.9,0.2,3.8,0.7,5.7,1.1c1.6,0.2,3.2,0.7,4.6,1.5c0.8,0.4,1.4,1.1,1.8,1.9c0.1,1-0.2,2-0.7,2.9
			c-0.2,0.5-0.5,0.9-0.7,1.4c-0.8,1.5-2.1,1.8-3.6,2.2c-1.5,0.4-3.1,0.5-4.6,0.2c-0.8-0.2-1.6-0.6-2.3-1.1c-2.6-1.7-5.9-1.2-8.7-0.5
			c-0.4,0.1-0.8,0.2-1.2,0.4c-0.4,0.1-0.8,0.2-1.1,0.5c-0.3,0.3-0.6,0.5-1,0.7c-0.9,0.5-1.8,1-1.8,2.1c0,1.4-0.2,3,0.3,4.3
			c1.3,2.7-0.4,5.3,0.8,8c0.5,3.6,1.6,8.6,1.5,12.7c0,6.1,0.4,12.2,1.4,18.2c0.2,1.3,0.6,2.5,0.9,3.8c0.2,0.8,0.2,1.6,0.4,2.4
			c0.5,1.5,0.7,3.1,0.7,4.7c-0.1,2-0.3,4-0.6,6c-0.3,2.2-1,4.3-3.2,5.3c-2.1,2.3-5.9,1.9-8.6,1c-1.4-0.7-2.5-1.8-3.2-3.1
			c-0.3-0.7-0.4-1.4-0.5-2.1c-0.4-1.8-1.2-3.6-0.6-5.4c1.3-15.2,2.7-29.7,1.9-44.8"/>
		<path class="st1" d="M54.2,35c1.2,1.5,2.1,3.1,2.7,4.9c0.6,0.7,1.6,0.8,2.4,0.4c0.8-0.2,1.6-0.5,2.2-0.9c0.6-0.5,1.2-1.2,1.8-1.8
			c1.3-1.3,2.8-2.2,4.5-2.9c1-0.3,2.1-0.4,3.1-0.3c1.7,0.7,3.9,0.6,4.8,2.4c0.7,1.1,0.8,2.5,0.2,3.6c-1.5,3.1-5.3,4.2-7.9,6.2
			c-2.1,1.1-5,1.9-6,4.3c-0.1,3.8,3,6.8,5.4,9c3.6,3.8,7,9.5,11.9,11.8c1.4,0.8,2.7,1.8,3.9,3c0.7,0.6,1.4,1.1,2.1,1.5
			c0.8,0.5,1.7,0.7,2.6,1.2s1.8,0.8,2.5,1.6c0.3,0.3,0.7,0.4,1,0.6c0.7,0.4,1.2,1.2,2,1.3c0.4,0,0.9,0.1,1.3,0.2
			c0.4,0.2,0.8,0.5,1.2,0.8c1.8,1.3,3.8,2.3,5.8,3.1c0.8,0.3,1.7,0.3,2.5,0.7c0.7,0.4,1.4,0.9,1.9,1.4c1.1,0.8,2.7,1.5,3.2,2.9
			c0.2,1,0,2.1-0.7,2.9c-0.8,1-2.3,1.2-3.5,1.4s-2.5,0.8-3.7,0.9c-0.7,0.1-1.4,0.1-2,0.1c-1.4,0.1-2.9,0.3-4.3,0.4
			c-2.9,0.4-5.9,0.5-8.8,0.6c-1.6,0-3.5,0.2-5-0.6c-2-1.3-3.8-2.7-5.6-4.2c-2.4-1.8-4-4.3-5.7-6.8s-3.5-5.2-5.3-7.8
			c-1.5-2.1-2.9-4.5-4.9-6.1c-0.7-0.6-1.2-1.4-1.8-2c-0.6-0.5-1.1-1.1-1.7-1.6c-1.1-1.2-2.2-2.3-3.9-2.4c-0.6,0.9-1.1,2-1.3,3.1
			c-0.2,0.8-0.1,1.5-0.3,2.3s-0.3,1.2-0.5,1.8c-0.1,1.4-0.5,2.7-1,4c-0.4,0.7-0.7,1.4-0.8,2.2c-0.2,0.9-0.6,1.7-0.9,2.5
			c-0.2,0.4-0.5,0.8-0.7,1.3c-0.4,0.8-0.6,1.7-1,2.4c-0.5,0.9-1,1.7-1.5,2.6c-1.1,1.7-2.4,3.2-3.8,4.7c-0.8,0.8-1.6,1.6-2.4,2.3
			c-0.6,0.6-1.3,1.2-2,1.7c-0.8,0.4-1.6,0.7-2.5,0.9c-1.8,0.6-3.5,1.4-5.4,1.5c-1.1,0-2.3-0.3-3.3-0.8c-0.4-0.2-1.2-0.2-1.7-0.4
			c-0.6-0.2-1.1-0.5-1.6-0.9c-0.6-0.4-1.1-0.9-1.5-1.4c-0.2-0.3-0.4-0.6-0.5-1c-0.1-0.8,0-1.1-0.5-1.8c-0.7-0.9-0.3-1.4-0.5-2.4
			c-0.2-0.4-0.3-0.9-0.4-1.3c-0.1-0.8,0.6-1.4,1-1.9c0.4-0.7,1-1.3,1.7-1.6c1-0.3,2-0.3,3-0.1c0.5,0.1,1,0.3,1.5,0.6
			c0.7,0.4,1,1.1,2,0.6c0.7-0.4,1.1-1.1,1.7-1.7s0.6-1,1.1-1.5c0.5-0.5,1-1,1.4-1.6c0.9-1.1,1.5-2.4,2-3.8c2.4-2.5,2.7-6.1,1.7-9.5
			c-2.5-0.2-5,1.1-7.6,0.2c-1.7-1.3-4.2-1.9-5.1-3.8c-1.3-1.2-2.1-2.9-2.4-4.6c0.7-2,3.5-1.4,5.1-1.7c1.5-0.6,3.2-0.7,4.6-1.5
			c0.8-0.4,1.8-0.5,2.6-1s1.6-1,2.4-1.5c0.8-0.5,1.6-1,2.4-1.4c0.9-0.4,1.9-0.5,2.8-1c0.8-0.4,1.5-1,2.1-1.5
			c1.5-1.1,2.3-2.8,2.2-4.7c-0.2-0.6-0.3-1.3-0.4-1.9c0-0.7,0.1-1.3,0.3-2c0.2-0.7,0.3-1.3,0.4-2c0.1-1-0.1-1.7,0.5-2.6
			c0.6-0.8,1.3-1.4,2.2-1.8c0.8-0.2,1.6-0.2,2.4-0.1c0.6,0,1.4-0.4,2-0.2c0.4,0.1,0.6,0.4,1,0.5C53.4,34.7,53.8,34.9,54.2,35"/>
		<path class="st1" d="M191.4,68.1h-0.2c-0.2-0.5-0.5-1-1-1.3c-0.6-0.3-1.2-0.5-1.9-0.4c-1,0-2,0.4-2.6,1.2c-0.7,1-1,2.1-0.9,3.3
			c-0.1,1.2,0.3,2.5,0.9,3.5c0.7,0.8,1.7,1.3,2.8,1.2c0.5,0,1.1-0.1,1.6-0.3c0.5-0.2,1-0.5,1.4-0.8h0.2l-0.4,1.3
			c-0.5,0.2-1,0.4-1.6,0.5c-0.6,0.1-1.1,0.2-1.7,0.2c-1.5,0.1-3.1-0.4-4.2-1.5c-1-1.1-1.6-2.6-1.5-4.1c-0.1-1.5,0.5-3,1.6-4
			c1.2-1,2.8-1.6,4.4-1.5c0.6,0,1.1,0.1,1.7,0.2c0.6,0.1,1.2,0.3,1.7,0.6c-0.1,0.3-0.2,0.6-0.2,0.9
			C191.5,67.3,191.4,67.7,191.4,68.1z"/>
		<path class="st1" d="M192.5,72.5c-0.1-1.1,0.3-2.1,1-2.9c1.7-1.4,4.1-1.4,5.7,0c0.7,0.8,1.1,1.8,1,2.9c0.2,2.1-1.5,4-3.6,4.2
			s-4-1.5-4.2-3.6C192.4,72.9,192.4,72.7,192.5,72.5L192.5,72.5z M194.8,72.5c-0.1,0.8,0.1,1.7,0.4,2.5c0.4,0.7,1.3,0.9,1.9,0.5
			c0.2-0.1,0.4-0.3,0.5-0.5c0.3-0.8,0.4-1.6,0.4-2.5c0.1-0.8-0.1-1.7-0.4-2.5c-0.4-0.7-1.2-0.9-1.9-0.5c-0.2,0.1-0.4,0.3-0.5,0.5
			C194.9,70.8,194.7,71.7,194.8,72.5z"/>
		<path class="st1" d="M201.6,76.2c0-0.8,0.1-1.6,0.1-2.2s0-1.1,0-1.5s0-0.9,0-1.5s0-1.3-0.1-2.2h0.5h0.6h0.6h0.5v1
			c0.3-0.4,0.6-0.7,1-0.9c0.4-0.2,0.8-0.3,1.2-0.3c0.5,0,0.9,0.1,1.3,0.4c0.4,0.3,0.7,0.6,0.8,1.1c0.3-0.4,0.6-0.8,1.1-1
			c0.4-0.2,0.9-0.4,1.4-0.3c0.3,0,0.7,0.1,1,0.2c0.3,0.1,0.6,0.3,0.8,0.6c0.2,0.3,0.4,0.6,0.4,0.9c0.1,0.7,0.1,1.4,0.1,2.1v1
			c0,0.4,0,0.9,0,1.3s0,1,0.1,1.5h-0.6c-0.2,0-0.4,0-0.6,0c-0.2,0-0.4,0-0.5,0h-0.6c0.1-0.7,0.1-1.3,0.1-1.9s0-1.1,0-1.6
			c0.1-0.8,0-1.5-0.3-2.3c-0.2-0.4-0.6-0.6-1-0.5c-0.4,0-0.8,0.2-1,0.5c-0.2,0.6-0.3,1.2-0.3,1.9v2.4c0,0.2,0,0.7,0.1,1.2
			c0,0,0,0.1,0,0.2h-0.6c-0.2,0-0.4,0-0.6,0c-0.2,0-0.4,0-0.5,0h-0.6c0-0.6,0-1.1,0.1-1.7c0-0.5,0-1.1,0-1.5c0.1-0.9,0-1.7-0.3-2.6
			c-0.3-0.5-1.1-0.7-1.6-0.3c-0.1,0.1-0.3,0.2-0.3,0.3c-0.2,0.6-0.3,1.3-0.3,1.9v2.4c0,0.2,0,0.7,0.1,1.3c0,0,0,0.1,0,0.1h-0.6
			c-0.2,0-0.4,0-0.6,0c-0.2,0-0.3,0-0.5,0L201.6,76.2z"/>
		<path class="st1" d="M215,76.2c0-0.8,0.1-1.6,0.1-2.2s0-1.1,0-1.5s0-0.9,0-1.5s0-1.3-0.1-2.2h0.5h0.6h0.6h0.5v1
			c0.3-0.4,0.6-0.7,1-0.9c0.4-0.2,0.8-0.3,1.2-0.3c0.5,0,0.9,0.1,1.3,0.4c0.4,0.3,0.7,0.6,0.8,1.1c0.3-0.4,0.7-0.8,1.1-1
			c0.4-0.2,0.9-0.4,1.4-0.3c0.3,0,0.7,0.1,1,0.2c0.3,0.1,0.6,0.3,0.8,0.6c0.2,0.3,0.4,0.6,0.4,0.9c0.1,0.7,0.1,1.4,0.1,2.1v1
			c0,0.4,0,0.9,0,1.3s0,1,0.1,1.5h-0.6c-0.2,0-0.4,0-0.6,0c-0.2,0-0.4,0-0.5,0h-0.6c0-0.7,0.1-1.3,0.1-1.9s0-1.1,0-1.6
			c0.1-0.8,0-1.5-0.3-2.3c-0.2-0.4-0.6-0.6-1-0.5c-0.4,0-0.8,0.2-1,0.5c-0.2,0.6-0.3,1.2-0.3,1.9v2.4c0,0.2,0,0.7,0,1.2
			c0,0,0,0.1,0,0.2h-0.6c-0.2,0-0.4,0-0.6,0c-0.2,0-0.4,0-0.5,0h-0.6c0-0.6,0-1.1,0.1-1.7c0-0.5,0-1.1,0-1.5c0.1-0.9,0-1.7-0.3-2.6
			c-0.3-0.5-1.1-0.7-1.6-0.3c-0.1,0.1-0.3,0.2-0.3,0.3c-0.2,0.6-0.3,1.3-0.3,1.9v2.4c0,0.2,0,0.7,0.1,1.3c0,0,0,0.1,0,0.1h-0.6
			c-0.2,0-0.4,0-0.6,0c-0.2,0-0.3,0-0.5,0L215,76.2z"/>
		<path class="st1" d="M228,72.5c0.1-2.2,2-4,4.2-3.9c0.9,0,1.8,0.4,2.5,1c0.7,0.8,1.1,1.8,1,2.9c0.2,2-1.2,3.7-3.2,3.9
			c-0.2,0-0.5,0-0.7,0c-1,0.1-2.1-0.3-2.9-1C228.3,74.6,227.9,73.6,228,72.5z M230.3,72.5c-0.1,0.8,0.1,1.7,0.4,2.5
			c0.4,0.7,1.3,0.9,1.9,0.5c0.2-0.1,0.4-0.3,0.5-0.5c0.3-0.8,0.4-1.6,0.4-2.5c0.1-0.8-0.1-1.7-0.4-2.5c-0.4-0.7-1.2-0.9-1.9-0.6
			c-0.2,0.1-0.4,0.3-0.6,0.6C230.3,70.8,230.2,71.7,230.3,72.5L230.3,72.5z"/>
		<path class="st1" d="M237.1,76.2c0-0.7,0.1-1.3,0.1-1.9s0-1.2,0-1.7s0-1.3,0-1.9s0-1.2-0.1-1.8h0.5h0.6h0.6h0.5v1.1
			c0.3-0.4,0.6-0.7,1.1-0.9c0.4-0.2,0.9-0.3,1.3-0.3c0.3,0,0.7,0.1,1,0.2c0.3,0.1,0.6,0.3,0.8,0.6c0.2,0.2,0.3,0.5,0.4,0.8
			c0.1,0.5,0.1,1,0.1,1.5c0,0.1,0,0.4,0,0.8s0,0.8,0,1.1c0,0.5,0,0.9,0,1.4s0,0.8,0.1,1.2h-0.6c-0.2,0-0.4,0-0.6,0
			c-0.2,0-0.4,0-0.5,0h-0.6c0-0.4,0.1-1,0.1-1.6s0-1.3,0-2c0.1-0.7,0-1.5-0.3-2.2c-0.2-0.4-0.6-0.5-1-0.5c-0.4,0-0.8,0.2-1,0.6
			c-0.2,0.6-0.3,1.3-0.3,2c0,0.4,0,1,0,1.6s0,1.3,0.1,2.1h-0.6c-0.2,0-0.4,0-0.5,0c-0.2,0-0.4,0-0.5,0L237.1,76.2z"/>
		<path class="st1" d="M248.1,76.2c-0.4-1.7-0.9-3.4-1.5-5.2c-0.5-1.8-1.1-3.6-1.8-5.4h0.6h1.4h0.6c0.3,1.3,0.6,2.6,1,3.9
			s0.7,2.6,1.1,3.8c0.5-1.4,0.9-2.7,1.4-4s0.9-2.5,1.2-3.7h0.4h0.8h0.4c0.4,1.2,0.8,2.5,1.2,3.7s0.9,2.6,1.3,3.9
			c0.4-1.2,0.8-2.5,1.2-3.8s0.7-2.6,1-3.9h0.3h0.8h0.3c-0.6,1.6-1.1,3.2-1.7,5c-0.6,1.8-1.2,3.6-1.8,5.6h-0.4c-0.1,0-0.3,0-0.4,0
			c-0.1,0-0.2,0-0.4,0h-0.4c-0.4-1.2-0.7-2.4-1.2-3.7s-0.9-2.5-1.3-3.8c-0.5,1.2-0.9,2.4-1.4,3.7s-0.9,2.5-1.3,3.8h-0.4
			c-0.1,0-0.2,0-0.4,0c-0.1,0-0.3,0-0.4,0L248.1,76.2z"/>
		<path class="st1" d="M262.6,72.5c0,0.8,0.2,1.5,0.6,2.1c0.4,0.5,1.1,0.8,1.7,0.8c0.3,0,0.7-0.1,1-0.2c0.4-0.1,0.7-0.3,1-0.6
			l0.1,0.1l-0.3,0.9c-0.3,0.2-0.7,0.4-1.1,0.5c-0.5,0.1-0.9,0.2-1.4,0.2c-1.1,0.1-2.1-0.3-2.8-1.1c-0.7-0.8-1.1-1.9-1-2.9
			c0-1,0.3-2,1-2.7c0.7-0.7,1.7-1.1,2.7-1c0.9-0.1,1.8,0.3,2.4,0.9c0.6,0.7,0.9,1.6,0.9,2.5v0.3c0,0.1,0,0.1,0,0.2L262.6,72.5z
			 M262.6,71.8h2.6c0-0.1,0-0.1,0-0.2c0-0.1,0-0.1,0-0.2c0-0.5-0.1-1.1-0.3-1.6c-0.2-0.3-0.5-0.5-0.9-0.5c-0.4,0-0.8,0.2-1.1,0.6
			c-0.3,0.5-0.4,1.1-0.4,1.7L262.6,71.8z"/>
		<path class="st1" d="M272.5,75.2c-0.2,0.4-0.5,0.7-0.9,0.9c-0.4,0.2-0.8,0.3-1.2,0.3c-0.6,0-1.1-0.2-1.5-0.6
			c-0.4-0.4-0.6-1-0.5-1.6c0-0.4,0.1-0.9,0.4-1.2c0.3-0.4,0.8-0.6,1.2-0.8l0.8-0.2c0.6-0.1,1.1-0.4,1.6-0.7c0,0,0-0.1,0-0.1v-0.2
			c0-0.4-0.1-0.8-0.3-1.1c-0.3-0.3-0.7-0.4-1.1-0.4c-0.3,0-0.7,0.1-1,0.3c-0.3,0.2-0.6,0.5-0.8,0.9c-0.1-0.2-0.1-0.4-0.2-0.6
			s-0.1-0.3-0.2-0.4c0.4-0.4,0.9-0.7,1.4-0.9c0.4-0.2,0.9-0.3,1.4-0.3c0.8-0.1,1.5,0.2,2.1,0.6c0.5,0.5,0.8,1.1,0.7,1.8v0.1v2.7v0.3
			c0,0.4,0,0.8,0.2,1.2c0.2,0.2,0.5,0.3,0.8,0.3l0,0V76c-0.3,0.1-0.5,0.2-0.8,0.2c-0.3,0.1-0.5,0.1-0.8,0.1c-0.3,0-0.7-0.1-0.9-0.3
			C272.7,75.8,272.5,75.6,272.5,75.2z M272.4,72.1c-0.6,0.1-1.1,0.3-1.5,0.7c-0.5,0.6-0.6,1.5-0.2,2.2c0.2,0.2,0.4,0.3,0.7,0.3
			c0.3,0,0.6-0.1,0.8-0.4c0.2-0.3,0.3-0.7,0.3-1.1V72.1z"/>
		<path class="st1" d="M276.5,76.2c0-0.9,0.1-1.8,0.1-2.7c0-0.9,0-2,0-3s0-2.2,0-3.2s0-1.8-0.1-2.7l0.6,0.1h0.5h0.5
			c0.2,0,0.4,0,0.6-0.1c0,0.9-0.1,1.8-0.1,2.7s0,2,0,3s0,2.2,0,3.2s0.1,1.8,0.1,2.7l-0.5-0.1h-0.6h-0.6L276.5,76.2z"/>
		<path class="st1" d="M280.9,69.7h-1c0-0.1,0-0.1,0-0.2v-0.2c0-0.1,0-0.2,0-0.2c0-0.1,0-0.1,0-0.2h0.1c0.4,0,0.6,0.1,0.8,0.1h0.2
			c0-0.1,0-0.1,0-0.2v-0.4c0-0.2,0-0.4,0-0.7s0-0.5,0-0.8l1.1-0.4c0.4-0.2,0.7-0.3,1-0.5l0.2,0.1c0,0.6,0,1.1-0.1,1.5s0,0.7,0,0.9
			v0.5h0.8h0.7c0,0.1,0,0.2,0,0.2c0,0,0,0.1,0,0.2c0,0.1,0,0.2,0,0.4l0,0H283c0,0.1,0,0.2,0,0.3c0,1.1,0,1.8,0,2.3v0.6
			c0,0.7,0,1.5,0.2,2.2c0.1,0.3,0.4,0.4,0.7,0.4c0.3,0,0.6-0.1,0.9-0.2l0,0V76c-0.3,0.1-0.6,0.3-1,0.3c-0.3,0.1-0.6,0.1-0.8,0.1
			c-0.6,0-1.1-0.1-1.5-0.5c-0.4-0.4-0.6-1-0.5-1.5c0,0,0-0.5,0-1.3s0-1.7,0-2.5L280.9,69.7z"/>
		<path class="st1" d="M285.7,76.2c0-0.5,0.1-1.2,0.1-2s0-2,0-3.5s0-2.9,0-3.8s0-1.7-0.1-2.3l0.6,0.1h0.5c0.2,0,0.4,0,0.5,0l0.6-0.1
			c0,0.4-0.1,0.9-0.1,1.4s0,1,0,1.6v2.4c0.2-0.4,0.6-0.8,1-1c0.4-0.2,0.9-0.3,1.4-0.3c0.3,0,0.7,0.1,1,0.2c0.3,0.1,0.6,0.3,0.8,0.6
			c0.2,0.2,0.3,0.5,0.4,0.8c0.1,0.5,0.1,1,0.1,1.5c0,0.1,0,0.4,0,0.8s0,0.8,0,1.1c0,0.6,0,1.1,0,1.5c0,0.4,0,0.8,0.1,1.1h-0.6
			c-0.4,0-0.7,0-1.1,0h-0.6c0-0.4,0.1-1,0.1-1.6s0-1.3,0-2c0.1-0.7,0-1.5-0.3-2.2c-0.2-0.4-0.6-0.5-1-0.5c-0.4,0-0.8,0.2-1,0.6
			c-0.3,0.6-0.4,1.3-0.3,2c0,0.5,0,1,0,1.7s0,1.3,0.1,2h-0.6c-0.2,0-0.4,0-0.5,0c-0.2,0-0.4,0-0.5,0L285.7,76.2z"/>
		<path class="st1" d="M182.7,93.4c0.1-0.8,0.2-1.5,0.3-2s0.1-1,0.2-1.2l1-7.3l0.3,0.1h0.7l0.3-0.1c0.6,1.2,1.1,2.4,1.7,3.7
			s1.2,2.4,1.9,3.6c0.6-1.1,1.2-2.3,1.8-3.5s1.2-2.4,1.7-3.7L193,83h0.7l0.3-0.1l0.9,7.4c0.1,0.8,0.2,1.5,0.3,1.9s0.1,0.9,0.2,1.2
			h-0.7c-0.2,0-0.4,0-0.6,0s-0.4,0-0.6,0h-0.7c0,0,0-0.1,0-0.2c0-1.1-0.1-1.7-0.1-2l-0.5-4.9c-0.6,1.1-1.1,2.2-1.7,3.4
			s-1.2,2.4-1.8,3.7h-0.1h-0.4h-0.1c-0.6-1.3-1.2-2.5-1.8-3.6s-1.1-2.2-1.7-3.2l-0.4,3.2V90c-0.2,1.7-0.3,2.8-0.3,3.5h-0.3
			c-0.1,0-0.2,0-0.3,0c-0.1,0-0.2,0-0.3,0L182.7,93.4z"/>
		<path class="st1" d="M200.8,92.5c-0.2,0.4-0.5,0.7-0.9,0.9c-0.4,0.2-0.8,0.3-1.2,0.3c-0.6,0-1.1-0.2-1.5-0.6
			c-0.4-0.4-0.6-1-0.6-1.6c0-0.4,0.1-0.9,0.4-1.2c0.3-0.4,0.8-0.6,1.2-0.8l0.8-0.2c0.6-0.1,1.1-0.4,1.6-0.7c0,0,0-0.1,0-0.1v-0.2
			c0-0.4-0.1-0.8-0.4-1.1c-0.3-0.3-0.7-0.4-1.1-0.4c-0.3,0-0.7,0.1-0.9,0.3c-0.3,0.2-0.6,0.6-0.8,0.9c-0.1-0.2-0.1-0.4-0.2-0.6
			s-0.1-0.3-0.2-0.4c0.4-0.4,0.9-0.7,1.4-0.9c0.4-0.2,0.9-0.3,1.4-0.3c0.8-0.1,1.5,0.2,2.1,0.6c0.5,0.5,0.8,1.1,0.7,1.8v0.1v2.7v0.3
			c0,0.4,0,0.8,0.2,1.2c0.2,0.2,0.5,0.3,0.8,0.3l0,0v0.4c-0.3,0.1-0.5,0.2-0.8,0.2c-0.3,0.1-0.5,0.1-0.8,0.1c-0.3,0-0.7-0.1-0.9-0.3
			C201,93.1,200.8,92.8,200.8,92.5z M200.7,89.4c-0.6,0.1-1.1,0.3-1.6,0.7c-0.5,0.6-0.6,1.5-0.2,2.2c0.2,0.2,0.4,0.3,0.7,0.3
			c0.3,0,0.6-0.1,0.8-0.4c0.2-0.3,0.3-0.7,0.3-1.1V89.4z"/>
		<path class="st1" d="M205.9,93.8v-0.1c-0.3-0.1-0.5-0.2-0.7-0.5c-0.2-0.2-0.3-0.5-0.3-0.8c0-0.4,0.1-0.7,0.4-1
			c0.3-0.3,0.7-0.6,1.1-0.8v-0.2c-0.6-0.1-1.1-0.3-1.5-0.8c-0.3-0.4-0.5-0.9-0.5-1.4c0-0.7,0.3-1.4,0.9-1.8c0.7-0.5,1.5-0.7,2.3-0.7
			l1,0.1c0.6,0,1.1,0.1,1.7,0.1h0.7h0.7v0.8h-1.3h-0.2c0.3,0.2,0.5,0.4,0.6,0.7c0.1,0.3,0.2,0.6,0.2,0.9c0,0.7-0.3,1.4-0.9,1.9
			c-0.8,0.5-1.7,0.7-2.6,0.7h-0.3c-0.2,0-0.4,0.1-0.5,0.2c-0.1,0.1-0.2,0.3-0.2,0.5c0,0.5,0.7,0.7,2.2,0.8h0.3
			c0.6,0,1.2,0.1,1.8,0.3c0.3,0.2,0.5,0.4,0.7,0.7c0.2,0.3,0.3,0.7,0.2,1.1c0,0.9-0.4,1.8-1.2,2.3c-0.9,0.6-2,1-3.1,0.9
			c-0.8,0-1.7-0.1-2.4-0.5c-0.5-0.3-0.9-0.8-0.9-1.5c0-0.4,0.1-0.8,0.4-1.1C205,94.2,205.4,94,205.9,93.8z M206.6,93.9
			c-0.2,0.1-0.5,0.3-0.6,0.6c-0.1,0.2-0.2,0.5-0.2,0.8c0,0.5,0.2,0.9,0.5,1.3c0.4,0.3,0.9,0.5,1.4,0.5c0.6,0,1.2-0.1,1.6-0.4
			c0.4-0.3,0.6-0.7,0.6-1.2c0-0.4-0.1-0.7-0.4-1c-0.4-0.3-0.8-0.4-1.2-0.4L206.6,93.9z M206.6,88.3c0,0.5,0.1,1,0.3,1.4
			c0.2,0.3,0.5,0.5,0.9,0.4c0.4,0,0.7-0.2,0.9-0.5c0.2-0.5,0.3-1,0.3-1.6c0-0.4-0.1-0.9-0.3-1.2c-0.2-0.3-0.5-0.4-0.8-0.4
			c-0.4,0-0.7,0.2-0.9,0.5C206.7,87.4,206.5,87.8,206.6,88.3L206.6,88.3z"/>
		<path class="st1" d="M216.5,92.5c-0.2,0.4-0.5,0.7-0.9,0.9c-0.4,0.2-0.8,0.3-1.2,0.3c-0.6,0-1.1-0.2-1.5-0.6
			c-0.4-0.4-0.6-1-0.6-1.6c0-0.4,0.1-0.9,0.4-1.2c0.3-0.4,0.8-0.6,1.2-0.8l0.8-0.2c0.6-0.1,1.1-0.4,1.7-0.7c0,0,0-0.1,0-0.1v-0.2
			c0-0.4-0.1-0.8-0.4-1.1c-0.3-0.3-0.7-0.4-1.1-0.4c-0.4,0-0.7,0.1-1,0.3c-0.3,0.2-0.6,0.5-0.8,0.9l-0.2-0.6l-0.1-0.4
			c0.4-0.4,0.9-0.7,1.4-0.9c0.4-0.2,0.9-0.3,1.4-0.3c0.8-0.1,1.5,0.2,2.1,0.6c0.5,0.5,0.8,1.1,0.8,1.8v0.1l-0.1,2.7v0.3
			c0,0.4,0,0.8,0.2,1.2c0.2,0.2,0.5,0.3,0.8,0.3l0,0v0.4c-0.3,0.1-0.5,0.2-0.8,0.2c-0.3,0.1-0.5,0.1-0.8,0.1c-0.3,0-0.7-0.1-0.9-0.3
			C216.7,93.1,216.5,92.8,216.5,92.5z M216.4,89.4c-0.6,0.1-1.1,0.3-1.6,0.7c-0.3,0.3-0.5,0.8-0.5,1.2c0,0.4,0.1,0.7,0.2,1
			c0.2,0.2,0.4,0.3,0.7,0.3c0.3,0,0.6-0.1,0.8-0.4c0.2-0.3,0.3-0.7,0.3-1.1V89.4z"/>
		<path class="st1" d="M219.7,93.4v-0.2c0.6-0.9,1.5-2.2,2.7-4.1l1.4-2.2h-0.8h-0.5c-0.4,0-1.1,0-2,0.1h-0.2c0-0.1,0-0.1,0-0.2
			c0-0.1,0-0.2,0-0.2c0-0.1,0-0.2,0-0.3c0-0.1,0-0.1,0-0.2h1.4h3.2h1.4v0.2c-0.4,0.6-0.9,1.3-1.5,2.3s-1.5,2.3-2.6,4h0.8h0.5
			c0.5,0,0.9,0,1.4,0l1.3-0.1c0,0.1,0,0.2,0,0.2s0,0.1,0,0.2s0,0.1,0,0.2s0,0.2,0,0.3H225c-0.5,0-1.1,0-1.8,0s-1.3,0-1.9,0
			L219.7,93.4z"/>
		<path class="st1" d="M227.8,83.3c0-0.6,0.5-1.2,1.1-1.2c0,0,0,0,0.1,0c0.3,0,0.6,0.1,0.8,0.3c0.2,0.2,0.3,0.5,0.3,0.8
			c0,0.6-0.5,1.2-1.2,1.2l0,0C228.4,84.4,227.8,83.9,227.8,83.3C227.8,83.3,227.8,83.3,227.8,83.3L227.8,83.3z M227.8,93.4
			c0-0.8,0.1-1.5,0.1-2.1s0-1.1,0-1.6s0-1.2,0-1.8s0-1.2-0.1-1.9h0.6h1.2h0.6c0,0.7-0.1,1.3-0.1,1.9s0,1.2,0,1.8s0,1,0,1.6
			s0,1.3,0.1,2h-0.6c-0.2,0-0.4,0-0.6,0c-0.2,0-0.4,0-0.6,0L227.8,93.4z"/>
		<path class="st1" d="M232.1,93.4c0-0.7,0.1-1.3,0.1-1.9s0-1.2,0-1.8s0-1.2,0-1.9s0-1.2-0.1-1.8h0.5h1.1h0.5v1.1
			c0.3-0.4,0.6-0.7,1.1-0.9c0.4-0.2,0.9-0.3,1.3-0.3c0.3,0,0.7,0.1,1,0.2c0.3,0.1,0.6,0.3,0.8,0.6c0.2,0.2,0.3,0.5,0.4,0.8
			c0.1,0.5,0.1,1,0.1,1.5c0,0.1,0,0.4,0,0.8s0,0.8,0,1.1s0,0.9,0,1.4s0,0.8,0.1,1.2h-0.6c-0.2,0-0.4,0-0.5,0c-0.2,0-0.4,0-0.6,0
			h-0.6c0-0.4,0.1-1,0.1-1.6s0-1.3,0-2c0.1-0.7,0-1.5-0.3-2.2c-0.2-0.4-0.6-0.5-1-0.5c-0.4,0-0.8,0.2-1,0.6c-0.3,0.6-0.4,1.3-0.3,2
			c0,0.4,0,1,0,1.6s0,1.3,0.1,2.1h-0.6c-0.2,0-0.4,0-0.6,0c-0.2,0-0.4,0-0.5,0L232.1,93.4z"/>
		<path class="st1" d="M242.6,89.8c0,0.8,0.2,1.5,0.6,2.1c0.4,0.5,1.1,0.8,1.7,0.8c0.3,0,0.7-0.1,1-0.2c0.4-0.1,0.7-0.3,1-0.6
			l0.1,0.1l-0.3,0.9c-0.3,0.2-0.7,0.4-1.1,0.5c-0.5,0.1-0.9,0.2-1.4,0.2c-1.1,0.1-2.1-0.3-2.8-1.1c-0.7-0.8-1.1-1.9-1-3
			c0-1,0.3-2,1-2.7c0.7-0.7,1.7-1.1,2.7-1c0.9-0.1,1.8,0.3,2.4,0.9c0.6,0.7,0.9,1.6,0.9,2.5v0.3c0,0.1,0,0.1,0,0.2L242.6,89.8z
			 M242.6,89h2.6c0-0.1,0-0.1,0-0.2c0-0.1,0-0.1,0-0.2c0-0.5-0.1-1.1-0.3-1.6c-0.2-0.3-0.5-0.5-0.9-0.5c-0.4,0-0.8,0.2-1.1,0.6
			c-0.3,0.5-0.4,1.1-0.4,1.7L242.6,89z"/>
		<path class="st1" d="M214.7,50.6v1.7h-12.2V55h-3.2V36c-0.5,0.8-1,1.6-1.6,2.3l-1-0.8c0.4-0.9,0.8-1.8,1.2-2.7l-1.7,1.6
			c-0.6-1.2-1.2-2.4-2-3.5c-0.7,1.4-1.5,2.7-2.4,3.9h0.6v3.4h6V42h-6v1.3c2.1,1.1,4,2.4,5.8,4l-2.1,2.4c-1.1-1.6-2.3-3.2-3.6-4.7
			v10.2h-3.1v-9.5c-1.8,2.7-4.1,5.1-6.8,7l-0.8-1.1c2.9-2.8,5.2-6.1,6.8-9.8h-6v-1.6h6.8v-3.4h0.9c1.5-2.9,2.4-6.1,2.7-9.3l2.9,0.7
			c-0.2,1.1-0.6,2.1-1,3.2c1.2,0.8,2.3,1.7,3.3,2.7c1.3-3.7,1.7-7.6,2.2-12.9l3.3,0.6c-0.2,2.4-0.7,4.7-1.3,6.9h11.8v1.6h-5.1v4.9
			h4.2V37h-4.2v5.7h4.2v1.6h-4.2v6.3L214.7,50.6z M183.2,38.5l-1-0.8c1.8-3.2,3-6.6,3.6-10.2l2.9,0.7c-0.3,1.1-0.6,2.1-1.1,3.1
			c1.3,0.8,2.5,1.9,3.5,3l-2.1,2c-0.6-1.2-1.3-2.4-2-3.6C186.1,34.8,184.8,36.8,183.2,38.5z M198.4,27.2h-15.7v-1.6h8.1
			c-1.3-1.3-2.6-2.5-4-3.6l0.5-1.1c2.1,0.6,4.2,1.5,6,2.7l-1.4,2h6.5L198.4,27.2z M206,30.5h-3.5v4.9h3.5L206,30.5z M206,37h-3.5
			v5.7h3.5L206,37z M206,44.3h-3.5v6.3h3.5L206,44.3z M207,28.3c-0.5-2.3-1.1-4.5-1.9-6.7l1.2-0.6c1.6,1.9,2.8,3.9,3.7,6.2L207,28.3
			z"/>
		<path class="st1" d="M234.7,29.1h-12.1v-1.6h5.6c-1.2-2.1-2.6-4.3-3.4-5.5l0.9-0.9c2.1,1.4,4,3.1,5.6,5l-1.9,1.5h5.3V29.1z
			 M223.7,34v-1.5h10.2V34L223.7,34z M233.9,39h-10.2v-1.5h10.2L233.9,39z M237.5,42.4l1.3,0.2c-0.2,3.8-1,7-2.7,9.3l-2.4-1.8v4.4
			h-2.8v-2.1h-4.2V55h-2.9V42.6h9.8v7.2C235.6,47.8,237,45.2,237.5,42.4L237.5,42.4z M230.8,44.2h-4.1v6.6h4.1V44.2z M243,29.1h-7.5
			v-1.6h7.5v-6.1h3.3v6.1h7.6v1.6h-7.6v6.3h7.1V37h-17.2v-1.6h6.7V29.1z M249.4,46c1.7,6,2,8.3-3.7,8.3c-5.3,0-6-0.4-6-4.3v-9.5h3.2
			v8.9c0,1.5,0.3,1.9,2.6,1.9c2.6,0,2.6-0.5,2.6-5.3L249.4,46z M242.3,37.1c2.3,1,4.5,2.3,6.5,4l-2.1,2.4c-1.6-1.9-3.2-3.7-5-5.4
			L242.3,37.1z M255.2,48.8l-2.9,1.4c-0.8-2.7-1.8-5.3-3.1-7.9l1-0.7C252.3,43.7,254,46.1,255.2,48.8L255.2,48.8z"/>
		<path class="st1" d="M171.2,54.6c-0.6-0.7-1.3-1.2-2.1-1.7l-0.3-0.2l0,0c-0.5-0.3-1-0.6-1.5-0.8c-0.8-0.2-1.7-0.1-2.6-0.3
			c-1.2-0.3-2.4-0.5-3.6-0.7c-1.5-0.3-3.1-0.2-4.5,0.2c-0.7,0.2-1.4,0.5-1.9,1c-0.3,0.4-0.5,1-0.5,1.5c-0.1,0.5-0.2,1-0.2,1.6
			c0.1,2,0.7,3.9,1.7,5.5c0.5,0.9,1.1,1.7,1.8,2.5c0.6,0.8,1.3,1.5,2.1,2.2c0.7,0.4,1.3,1,1.8,1.7c0.4,0.6,0.4,0.7,1,1
			c1.1,0.3,2.2,0.5,3.4,0.5c1.5,0.1,3,0.1,4.5-0.1c1.1-0.2,1.3-1,2.2-1.5s1.3-0.6,1.7-1.5C175.9,61.1,173.8,57.6,171.2,54.6z"/>
	</g>
</g>
</svg>
