<svg xmlns="http://www.w3.org/2000/svg" viewBox="0 0 446.33 68.69"><g id="圖層_2" data-name="圖層 2"><g id="圖層_1-2" data-name="圖層 1"><path d="M66,57.32l-2.59,7.13c-7.71.5-19.59.72-28.3.36-14.76-.58-18.87-4-21.89-9.58A53.28,53.28,0,0,1,4.39,68.05L0,63.58c3.24-2.52,7.34-5.9,9.79-9.36V37.3H1.08V34.06H16v20c4.82,5.25,8.35,5.4,19.44,5.4A288.16,288.16,0,0,0,66,57.32ZM2.3,17.28l1.37-2.23a53.56,53.56,0,0,1,13.25,8.64L12.31,28.8A102.83,102.83,0,0,0,2.3,17.28Zm3.46-14,1.3-2.09a51.86,51.86,0,0,1,13.25,8l-4.54,5.12A105.81,105.81,0,0,0,5.76,3.24ZM17.28,29.67C22.47,22,26.93,10.15,28.59.22l6.69,1.87a58.1,58.1,0,0,1-4,11.09H44.14A93.28,93.28,0,0,0,39.1,2L41.26.43A40,40,0,0,1,50.33,11l-3.81,2.23H61.71v3.24H48.82v8.21H60.41v3.24H48.82v8.57H60.41v3.24H48.82V49.4H63.15v3.24h-32v3.89H24.84v-32a40.48,40.48,0,0,1-5.69,6.92ZM42.63,16.42H31.18v8.21H42.63Zm0,11.45H31.18v8.57H42.63Zm0,11.81H31.18V49.4H42.63Z"/><path d="M97.34,52.64,96.05,50.4a57,57,0,0,0,16.78-19.94l6.12,3.6A51.74,51.74,0,0,1,97.34,52.64Zm62.15-27.51v3.24H133.56V43.28c0,6.62-7.34,10.94-19.65,4l.72-2.52c10.36,1.58,12.31,1,12.31-2.67V28.37H96.12V25.13h13.54v-18H116v18h10.3V.79h6.63V12h19.36v3.09H132.92v10Zm-11.17,7.42,6.85,3.09c-7.71,15.7-24.7,30-57,32.33l-.43-2.59C125.21,61.64,140.84,50.19,148.32,32.55Z"/><path d="M205.92,14.54h13V65.09h-6.33V58.54H200.23v7.92H193.9V14.54h8.56A139.27,139.27,0,0,0,204.7.07l7.77,1.66A85.07,85.07,0,0,1,205.92,14.54Zm6.7,3.25H200.23V33.7h12.39Zm0,37.51V36.94H200.23V55.3ZM253,14.69c-.14,22.32-.57,34.2-1.72,43.92-1.08,9.36-8.86,12.46-23.41,3.75l.8-2.52c13.75,3.09,15.4,1.87,16-4,.79-7.06,1.37-16.42,1.59-37.95H230.91a68.16,68.16,0,0,1-9.51,16.78l-2.09-1.59C224.5,23,227,9.72,228.17.29l7.56,1.51a91.94,91.94,0,0,1-3.6,12.89Zm-18.5,32.83A130.41,130.41,0,0,0,226.3,29l2.09-1.66a67.16,67.16,0,0,1,12.67,16.56Z"/><path d="M318.17,53.72H305.93v14h-6.19v-14H285.26V50.48h14.48V43.85h-10.8V19.08h10.87V12.82H286.34V9.58h13.47v-9H306v9h12.6v3.24H306v6.26h10.66V43.85H305.93v6.63h12.24ZM300,22.32H294.7v6.77H300Zm0,9.8H294.7v8.49H300Zm5.62-3H311V22.32h-5.47ZM311,40.61V32.12h-5.47v8.49ZM341.79,66c-6.63,0-7.27-2.45-7.27-9.22V20.16h-4.68c-.44,22.54-3,38.31-17.57,48.53l-1.66-2c10.87-10.44,12.53-21.75,12.82-46.52h-5.26V16.92h5.26V.94l6.48.07V16.92h11V55.8c0,3.75.51,4.11,2,4.11,2.45,0,2.59-.29,2.31-12.53h2.59C352.88,65.45,349.28,66,341.79,66Z"/><path d="M409,54.37c-4.53,3-17.93,8.64-26.5,11l-2.16-7.13c1.23-.14,2.52-.29,3.82-.5V33.41h5.62v23.4c1.15-.21,2.3-.43,3.45-.72V26.93h-8.78V5.18h21.46V26.93h-6.48v9.72h8.28a102.51,102.51,0,0,0,1.65-12.74L415.59,25c-1.15,7.56-4.83,18.93-9.65,24.91l-2.23-1.3a41.84,41.84,0,0,0,3.16-8.71h-7.48V54.65c3.16-.86,6.12-1.73,8.56-2.66ZM390.31,23.69H400V8.42h-9.65Zm42.77-7.56V58.47c0,10.22-5.61,12.17-17.06,4.68l.86-2.38c8.93,2.67,10.16,1.88,10.16-4.39V16.13h-3.82c.5,37.59-9.22,45.58-20.81,51.92L400.9,66c10.73-7.78,15.91-15.77,16.13-49.83H406.87V13h17a111.22,111.22,0,0,0-8.35-10.73L417.1,0a61.19,61.19,0,0,1,13.61,9.94l-3.17,3h17v3.17ZM446.33,48l-6.77,2.23a142.47,142.47,0,0,0-5.76-25.71L436,23.33C441,31,444.32,41.33,446.33,48Z"/></g></g></svg>