<svg xmlns="http://www.w3.org/2000/svg" viewBox="0 0 578.81 68.69"><g id="圖層_2" data-name="圖層 2"><g id="圖層_1-2" data-name="圖層 1"><path d="M66,57.32l-2.59,7.13c-7.71.5-19.59.72-28.3.36-14.76-.58-18.87-4-21.89-9.58A53.28,53.28,0,0,1,4.39,68.05L0,63.58c3.24-2.52,7.34-5.9,9.79-9.36V37.3H1.08V34.06H16v20c4.82,5.25,8.35,5.4,19.44,5.4A288.16,288.16,0,0,0,66,57.32ZM2.3,17.28l1.37-2.23a53.56,53.56,0,0,1,13.25,8.64L12.31,28.8A102.83,102.83,0,0,0,2.3,17.28Zm3.46-14,1.3-2.09a51.63,51.63,0,0,1,13.25,8l-4.54,5.11A105.81,105.81,0,0,0,5.76,3.24ZM17.28,29.67C22.47,22,26.93,10.15,28.59.22l6.69,1.87a58.1,58.1,0,0,1-4,11.09H44.14A93.28,93.28,0,0,0,39.1,2L41.26.43a40.09,40.09,0,0,1,9.07,10.51l-3.81,2.24H61.71v3.24H48.82v8.21H60.41v3.24H48.82v8.57H60.41v3.24H48.82V49.4H63.15v3.24h-32v3.88H24.84v-32a40.48,40.48,0,0,1-5.69,6.92ZM42.63,16.42H31.18v8.21H42.63Zm0,11.45H31.18v8.57H42.63Zm0,11.81H31.18V49.4H42.63Z"/><path d="M130.46,52.64l-1.29-2.24A57,57,0,0,0,146,30.46l6.12,3.6A51.74,51.74,0,0,1,130.46,52.64Zm62.15-27.51v3.24H166.68V43.28c0,6.62-7.34,10.94-19.65,4l.72-2.52c10.36,1.58,12.31,1,12.31-2.67V28.37H129.24V25.13h13.54v-18h6.33v18h10.3V.79H166V12H185.4v3.1H166v10Zm-11.17,7.42,6.85,3.09c-7.71,15.7-24.7,30-57,32.33l-.43-2.59C158.33,61.64,174,50.19,181.44,32.55Z"/><path d="M272.16,14.55h13V65.09h-6.33V58.54H266.47v7.92h-6.33V14.55h8.56A139.84,139.84,0,0,0,270.94.07l7.77,1.66A85.65,85.65,0,0,1,272.16,14.55Zm6.7,3.24H266.47V33.7h12.39Zm0,37.51V36.94H266.47V55.3Zm40.39-40.61c-.14,22.32-.57,34.2-1.73,43.92-1.08,9.36-8.85,12.46-23.4,3.75l.8-2.52c13.75,3.09,15.4,1.87,16.05-4,.79-7.06,1.37-16.42,1.59-37.95H297.15a68.16,68.16,0,0,1-9.51,16.78l-2.09-1.59C290.74,23,293.26,9.72,294.41.29L302,1.8a91.94,91.94,0,0,1-3.6,12.89Zm-18.5,32.83A130.91,130.91,0,0,0,292.54,29l2.09-1.66A67.16,67.16,0,0,1,307.3,43.85Z"/><path d="M417.53,53.72H405.29v14H399.1v-14H384.62V50.48H399.1V43.85H388.3V19.08h10.87V12.82H385.7V9.58h13.47v-9h6.19v9H418v3.24h-12.6v6.26H416V43.85H405.29v6.63h12.24Zm-18.22-31.4h-5.25v6.77h5.25Zm0,9.79h-5.25v8.5h5.25Zm5.62-3h5.47V22.32h-5.47Zm5.47,11.52v-8.5h-5.47v8.5ZM441.15,66c-6.63,0-7.27-2.45-7.27-9.22V20.16H429.2c-.44,22.54-3,38.31-17.57,48.53l-1.66-2c10.87-10.44,12.53-21.75,12.82-46.52h-5.26V16.92h5.26V.94l6.48.07V16.92h11V55.81c0,3.74.51,4.1,2,4.1,2.45,0,2.59-.29,2.3-12.53h2.6C452.24,65.45,448.64,66,441.15,66Z"/><path d="M541.44,54.36c-4.53,3-17.93,8.65-26.5,11l-2.16-7.13c1.23-.14,2.52-.28,3.82-.5V33.41h5.62v23.4c1.15-.21,2.3-.43,3.45-.72V26.93h-8.78V5.18h21.46V26.93h-6.48v9.72h8.28a102.51,102.51,0,0,0,1.65-12.74L548.07,25c-1.15,7.56-4.83,18.93-9.65,24.91l-2.23-1.3a41.84,41.84,0,0,0,3.16-8.71h-7.48V54.65c3.16-.86,6.12-1.73,8.56-2.66ZM522.79,23.69h9.65V8.42h-9.65Zm42.77-7.56V58.47c0,10.22-5.61,12.17-17.06,4.68l.86-2.38c8.93,2.67,10.16,1.88,10.16-4.39V16.13H555.7c.5,37.59-9.22,45.58-20.81,51.92L533.38,66c10.73-7.78,15.91-15.77,16.13-49.83H539.35V13h17A111.22,111.22,0,0,0,548,2.23L549.58,0a61.19,61.19,0,0,1,13.61,9.94L560,13h17v3.17ZM578.81,48,572,50.26a142.47,142.47,0,0,0-5.76-25.71l2.24-1.22C573.48,31,576.8,41.33,578.81,48Z"/></g></g></svg>