<?xml version="1.0" encoding="utf-8"?>
<!-- Generator: Adobe Illustrator 25.0.1, SVG Export Plug-In . SVG Version: 6.00 Build 0)  -->
<svg version="1.1" id="圖層_1" xmlns="http://www.w3.org/2000/svg" xmlns:xlink="http://www.w3.org/1999/xlink" x="0px" y="0px"
	 viewBox="0 0 168 32" style="enable-background:new 0 0 168 32;" xml:space="preserve">
<style type="text/css">
	.st0{fill:#FFFFFF;}
</style>
<g>
	<path class="st0" d="M29.8,26.2l-1.2,3.2c-3.4,0.2-8.7,0.3-12.6,0.2c-6.6-0.3-8.4-1.8-9.7-4.3c-1.1,2.3-2.5,4.1-3.9,5.7l-2-2
		c1.4-1.1,3.3-2.6,4.4-4.2v-7.5H1v-1.4h6.6v8.9c2.1,2.3,3.7,2.4,8.6,2.4C20.4,27.2,26.1,26.7,29.8,26.2z M1.5,8.4l0.6-1
		C3.9,8.2,6.3,9.7,8,11.3l-2,2.3C4.9,12.1,3,9.9,1.5,8.4z M3.1,2.2l0.6-0.9C5.4,2,7.8,3.3,9.5,4.8l-2,2.3C6.3,5.5,4.7,3.8,3.1,2.2z
		 M8.2,13.9c2.3-3.4,4.3-8.7,5-13.1l3,0.8c-0.4,1.5-1,3.2-1.8,4.9h5.7c-0.6-1.7-1.5-3.6-2.2-5l1-0.7c1.3,1,2.8,2.6,4,4.7l-1.7,1h6.8
		V8h-5.7v3.6h5.2v1.4h-5.2v3.8h5.2v1.4h-5.2v4.3h6.4v1.4H14.4v1.7h-2.8V11.6C10.7,12.9,9.8,14,9,14.7L8.2,13.9z M19.4,8h-5.1v3.6
		h5.1V8z M19.4,13.1h-5.1v3.8h5.1V13.1z M19.4,18.4h-5.1v4.3h5.1V18.4z"/>
	<path class="st0" d="M35.9,24.1l-0.6-1c2.5-1.8,5.5-5,7.5-8.9l2.7,1.6C43.4,19.3,39.5,22.6,35.9,24.1z M63.5,11.9v1.4H52V20
		c0,2.9-3.3,4.9-8.7,1.8l0.3-1.1c4.6,0.7,5.5,0.4,5.5-1.2v-6.1H35.4v-1.4h6v-8h2.8v8h4.6V1.1h2.9v5h8.6v1.4h-8.6v4.4H63.5z
		 M58.6,15.2l3,1.4c-3.4,7-11,13.3-25.3,14.4l-0.2-1.2C48.3,28.1,55.2,23,58.6,15.2z"/>
	<path class="st0" d="M76.3,7.2h5.8v22.5h-2.8v-2.9h-5.5v3.5H71V7.2h3.8c0.4-2,0.8-4.8,1-6.4l3.5,0.7C78.6,3.3,77.4,5.5,76.3,7.2z
		 M79.3,8.6h-5.5v7.1h5.5V8.6z M79.3,25.3v-8.2h-5.5v8.2H79.3z M97.3,7.3c-0.1,9.9-0.3,15.2-0.8,19.5c-0.5,4.2-3.9,5.5-10.4,1.7
		l0.4-1.1c6.1,1.4,6.8,0.8,7.1-1.8c0.4-3.1,0.6-7.3,0.7-16.9h-6.8c-1,2.5-2.3,5.1-4.2,7.5l-0.9-0.7c2.3-4.5,3.4-10.4,3.9-14.6
		l3.4,0.7C89.3,3,88.8,5,88,7.3H97.3z M89,21.9c-1.1-3-2.3-5.7-3.6-8.3l0.9-0.7c2.1,2,4.3,4.9,5.6,7.4L89,21.9z"/>
	<path class="st0" d="M118.4,24.6h-5.4v6.2h-2.8v-6.2h-6.4v-1.4h6.4v-2.9h-4.8v-11h4.8V6.4h-6V5h6V1h2.8v4h5.6v1.4H113v2.8h4.7v11
		h-4.8v2.9h5.4V24.6z M110.3,10.7H108v3h2.3V10.7z M110.3,15H108v3.8h2.3V15z M112.8,13.7h2.4v-3h-2.4V13.7z M115.2,18.8V15h-2.4
		v3.8H115.2z M128.9,30.1c-2.9,0-3.2-1.1-3.2-4.1V9.7h-2.1c-0.2,10-1.3,17-7.8,21.6l-0.7-0.9c4.8-4.6,5.6-9.7,5.7-20.7h-2.3V8.3h2.3
		V1.2l2.9,0v7.1h4.9v17.3c0,1.7,0.2,1.8,0.9,1.8c1.1,0,1.2-0.1,1-5.6h1.2C133.8,29.8,132.2,30.1,128.9,30.1z"/>
	<path class="st0" d="M150.9,24.9c-2,1.3-8,3.8-11.8,4.9l-1-3.2c0.5-0.1,1.1-0.1,1.7-0.2V15.6h2.5V26c0.5-0.1,1-0.2,1.5-0.3v-13H140
		V3h9.5v9.7h-2.9V17h3.7c0.4-1.9,0.6-3.9,0.7-5.7l2.8,0.5c-0.5,3.4-2.1,8.4-4.3,11.1l-1-0.6c0.6-1.2,1.1-2.5,1.4-3.9h-3.3V25
		c1.4-0.4,2.7-0.8,3.8-1.2L150.9,24.9z M142.6,11.3h4.3V4.5h-4.3V11.3z M161.6,7.9v18.8c0,4.5-2.5,5.4-7.6,2.1l0.4-1.1
		c4,1.2,4.5,0.8,4.5-2V7.9h-1.7c0.2,16.7-4.1,20.3-9.2,23.1l-0.7-0.9c4.8-3.5,7.1-7,7.2-22.1H150V6.5h7.6c-1-1.5-2.4-3.3-3.7-4.8
		l0.7-1c1.9,1,4.4,2.8,6,4.4l-1.4,1.3h7.6v1.4H161.6z M167.5,22.1l-3,1c-0.4-3.4-1.4-8-2.6-11.4l1-0.5
		C165.1,14.5,166.6,19.1,167.5,22.1z"/>
</g>
</svg>
