<svg id="圖層_1" data-name="圖層 1" xmlns="http://www.w3.org/2000/svg" viewBox="0 0 341.42 340.82"><defs><style>.cls-1{fill:#f3f3f3;}.cls-2{fill:#dcdcdc;}.cls-3{fill:#ececec;}.cls-4{fill:#505a78;}</style></defs><rect class="cls-1" x="141.3" y="6.52" width="193" height="193"/><path class="cls-2" d="M141.3,199.52h195L197.79,338.07H2.79Z"/><path class="cls-3" d="M2.8,145.57,141.3,7v192.5L2.8,338.07Z"/><polygon class="cls-4" points="144.19 5 141.3 0 138.41 5 140.8 5 140.8 200 141.8 200 141.8 5 144.19 5"/><polygon class="cls-4" points="341.42 199.52 336.42 196.64 336.42 199.02 141.42 199.02 141.42 200.02 336.42 200.02 336.42 202.41 341.42 199.52"/><polygon class="cls-4" points="141.78 199.75 141.07 199.04 3.18 336.93 1.49 335.24 0 340.82 5.58 339.32 3.89 337.63 141.78 199.75"/></svg>