<svg xmlns="http://www.w3.org/2000/svg" xmlns:xlink="http://www.w3.org/1999/xlink" viewBox="0 0 1213.33 934.19"><defs><style>.cls-3{fill:none;}.cls-3{stroke:#fff;stroke-width:0.2px;}</style></defs><g id="圖層_2" data-name="圖層 2"><line class="cls-3" x1="462.39" y1="867.69" x2="1213.14" y2="434.25"/><line class="cls-3" x1="0.57" y1="467.66" x2="693.81" y2="67.42"/><line class="cls-3" x1="0.69" y1="534.26" x2="751.46" y2="100.8"/><line class="cls-3" x1="0.05" y1="601.3" x2="809.1" y2="134.19"/><line class="cls-3" x1="58.47" y1="634.23" x2="866.75" y2="167.57"/><line class="cls-3" x1="116.29" y1="667.52" x2="924.08" y2="201.14"/><line class="cls-3" x1="174.37" y1="700.65" x2="982" y2="234.37"/><line class="cls-3" x1="231.41" y1="734.39" x2="1040.23" y2="267.41"/><line class="cls-3" x1="289.03" y1="767.79" x2="1097.44" y2="301.05"/><line class="cls-3" x1="0.68" y1="400.93" x2="635.83" y2="34.23"/><line class="cls-3" x1="0.57" y1="334.33" x2="579.5" y2="0.09"/><line class="cls-3" x1="520.04" y1="901.08" x2="1213.09" y2="500.95"/><line class="cls-3" x1="578.32" y1="934.1" x2="1213.28" y2="567.5"/><line class="cls-3" x1="404.63" y1="834.38" x2="1213.2" y2="367.55"/><line class="cls-3" x1="347.53" y1="800.68" x2="1155.96" y2="333.93"/></g><g id="圖層_3" data-name="圖層 3"><line class="cls-3" x1="693.64" y1="867.62" x2="0.73" y2="467.57"/><line class="cls-3" x1="1213.16" y1="500.9" x2="461.86" y2="67.14"/><line class="cls-3" x1="1213.41" y1="567.71" x2="404.97" y2="100.96"/><line class="cls-3" x1="1155.28" y1="600.81" x2="347.21" y2="134.27"/><line class="cls-3" x1="1098.18" y1="634.52" x2="289.5" y2="167.62"/><line class="cls-3" x1="1040.37" y1="667.8" x2="231.72" y2="200.93"/><line class="cls-3" x1="982.03" y1="700.79" x2="173.41" y2="233.93"/><line class="cls-3" x1="924.61" y1="734.31" x2="116.16" y2="267.55"/><line class="cls-3" x1="866.97" y1="767.69" x2="58.84" y2="301.12"/><line class="cls-3" x1="1213.07" y1="434.18" x2="520.43" y2="34.28"/><line class="cls-3" x1="1213.24" y1="367.61" x2="578.1" y2="0.91"/><line class="cls-3" x1="635.69" y1="900.83" x2="0.96" y2="534.37"/><line class="cls-3" x1="578.04" y1="934.21" x2="0.42" y2="600.72"/><line class="cls-3" x1="751.33" y1="834.26" x2="0.73" y2="400.9"/><line class="cls-3" x1="809.18" y1="800.99" x2="0.96" y2="334.37"/></g></svg>