<svg xmlns="http://www.w3.org/2000/svg" xmlns:xlink="http://www.w3.org/1999/xlink" viewBox="0 0 1213.33 934.19"><defs><style>.cls-1,.cls-20,.cls-3{fill:none;}.cls-2{fill:#ebe7de;}.cls-3{stroke:#231815;stroke-width:0.2px;}.cls-4{fill:#c69c6d;}.cls-5{fill:#505a78;}.cls-6{fill:#ff0;}.cls-23,.cls-26,.cls-28,.cls-7{fill:#fff;}.cls-8{fill:#69655a;}.cls-9{fill:#c8c9ca;}.cls-10{fill:#ea6120;}.cls-11{fill:#a9afa4;}.cls-12{fill:#95928a;}.cls-13{fill:#888;}.cls-14{fill:#737b92;}.cls-15{fill:#cac1bc;}.cls-16,.cls-32,.cls-34{fill:#231815;}.cls-17,.cls-30{fill:#4b5356;}.cls-18{fill:#858d7f;}.cls-19{fill:#c2b7a3;}.cls-20{stroke:#4b5356;stroke-width:0.28px;}.cls-21{fill:#9c8268;}.cls-22{clip-path:url(#clip-path);}.cls-23{font-size:69.28px;font-family:SourceHanSansTW-Regular-B5pc-H, Source Han Sans TW;}.cls-24{letter-spacing:0.22em;}.cls-25{letter-spacing:0.22em;}.cls-26{font-size:49.88px;}.cls-26,.cls-28,.cls-30,.cls-32,.cls-34{font-family:SourceHanSansTW-Medium-B5pc-H, Source Han Sans TW;}.cls-27{letter-spacing:0.24em;}.cls-28,.cls-32,.cls-34{font-size:41.57px;}.cls-29{letter-spacing:0.24em;}.cls-30{font-size:41.57px;}.cls-31{letter-spacing:0.05em;}.cls-33,.cls-34{letter-spacing:0.05em;}.cls-35{letter-spacing:0em;}</style><clipPath id="clip-path"><rect class="cls-1" x="-921.92" y="-999.1" width="3000" height="3000"/></clipPath></defs><g id="圖層_1" data-name="圖層 1"><rect class="cls-2" x="-921.92" y="-999.1" width="3000" height="3000"/></g><g id="圖層_2" data-name="圖層 2"><line class="cls-3" x1="462.39" y1="867.69" x2="1213.14" y2="434.25"/><line class="cls-3" x1="0.57" y1="467.66" x2="693.81" y2="67.42"/><line class="cls-3" x1="0.69" y1="534.26" x2="751.46" y2="100.8"/><line class="cls-3" x1="0.05" y1="601.3" x2="809.1" y2="134.19"/><line class="cls-3" x1="58.47" y1="634.23" x2="866.75" y2="167.57"/><line class="cls-3" x1="116.29" y1="667.52" x2="924.08" y2="201.14"/><line class="cls-3" x1="174.37" y1="700.65" x2="982" y2="234.37"/><line class="cls-3" x1="231.41" y1="734.39" x2="1040.23" y2="267.41"/><line class="cls-3" x1="289.03" y1="767.79" x2="1097.44" y2="301.05"/><line class="cls-3" x1="0.68" y1="400.93" x2="635.83" y2="34.23"/><line class="cls-3" x1="0.57" y1="334.33" x2="579.5" y2="0.09"/><line class="cls-3" x1="520.04" y1="901.08" x2="1213.09" y2="500.95"/><line class="cls-3" x1="578.32" y1="934.1" x2="1213.28" y2="567.5"/><line class="cls-3" x1="404.63" y1="834.38" x2="1213.2" y2="367.55"/><line class="cls-3" x1="347.53" y1="800.68" x2="1155.96" y2="333.93"/></g><g id="圖層_3" data-name="圖層 3"><line class="cls-3" x1="693.64" y1="867.62" x2="0.73" y2="467.57"/><line class="cls-3" x1="1213.16" y1="500.9" x2="461.86" y2="67.14"/><line class="cls-3" x1="1213.41" y1="567.71" x2="404.97" y2="100.96"/><line class="cls-3" x1="1155.28" y1="600.81" x2="347.21" y2="134.27"/><line class="cls-3" x1="1098.18" y1="634.52" x2="289.5" y2="167.62"/><line class="cls-3" x1="1040.37" y1="667.8" x2="231.72" y2="200.93"/><line class="cls-3" x1="982.03" y1="700.79" x2="173.41" y2="233.93"/><line class="cls-3" x1="924.61" y1="734.31" x2="116.16" y2="267.55"/><line class="cls-3" x1="866.97" y1="767.69" x2="58.84" y2="301.12"/><line class="cls-3" x1="1213.07" y1="434.18" x2="520.43" y2="34.28"/><line class="cls-3" x1="1213.24" y1="367.61" x2="578.1" y2="0.91"/><line class="cls-3" x1="635.69" y1="900.83" x2="0.96" y2="534.37"/><line class="cls-3" x1="578.04" y1="934.21" x2="0.42" y2="600.72"/><line class="cls-3" x1="751.33" y1="834.26" x2="0.73" y2="400.9"/><line class="cls-3" x1="809.18" y1="800.99" x2="0.96" y2="334.37"/></g><g id="圖層_4" data-name="圖層 4"><polygon class="cls-4" points="404.88 767.5 520.35 834.17 693.56 734.1 578.09 667.5 404.88 767.5"/><polygon class="cls-5" points="173.1 502.15 288.55 568.82 404.04 502.15 288.57 434.6 173.1 502.15"/><polygon class="cls-5" points="58.14 568.11 173.59 634.78 289.08 568.11 173.59 501.44 58.14 568.11"/><polygon class="cls-6" points="347.16 533.86 462.92 601.27 405.55 634.56 289.57 567.89 347.16 533.86"/><polygon class="cls-4" points="981.82 567.19 924.08 533.86 1039.98 467.19 1097.71 500.49 981.82 567.19"/><polygon class="cls-7" points="231.7 401.24 347.17 334.57 289.44 301.24 173.66 367.94 231.7 401.24"/></g><g id="圖層_5" data-name="圖層 5"><polygon class="cls-8" points="58.19 367.94 231.39 467.38 231.39 534.04 58.19 434.04 58.19 367.94"/><polygon class="cls-9" points="462.08 466.89 635.83 567.89 635.29 632.99 462.08 532.99 462.08 466.89"/><polygon class="cls-10" points="751.3 100.89 693.57 134.13 693.57 334.25 751.3 300.89 751.3 100.89"/><polygon class="cls-11" points="462.14 401.9 635.83 500.9 635.82 567.89 462.14 468 462.14 401.9"/><polygon class="cls-12" points="173.93 367.94 231.66 401.24 231.66 600.88 173.93 567.51 173.93 367.94"/><polygon class="cls-13" points="866.82 234.18 866.82 367.18 809.08 400.51 809.08 267.18 866.82 234.18"/><polygon class="cls-10" points="290.5 766.74 348.23 733.07 348.23 667.07 290.5 700.07 290.5 766.74"/><polygon class="cls-14" points="404.91 235.2 520.38 301.87 520.38 235.2 404.91 168.53 404.91 235.2"/><polygon class="cls-8" points="924.52 333.97 924.52 400.64 635.83 567.56 635.83 500.89 924.52 333.97"/><polygon class="cls-14" points="866.65 433.7 924.39 468.37 924.39 667.07 866.65 633.7 866.65 433.7"/><polygon class="cls-13" points="116.19 334.57 173.93 300.9 173.93 234.9 116.19 267.9 116.19 334.57"/><polygon class="cls-4" points="693.57 200.9 693.57 267.57 578.08 334.24 578.1 267.57 693.57 200.9"/></g><g id="圖層_6" data-name="圖層 6"><polygon class="cls-9" points="289.08 368.39 462.29 469.24 462.29 600.6 289.08 500.6 289.08 368.39"/><polygon class="cls-15" points="809.08 534.9 982.29 634.33 982.29 701 809.08 601 809.08 534.9"/></g><g id="圖層_7" data-name="圖層 7"><polygon class="cls-16" points="519.83 234.9 635.86 300.9 404.85 435.42 289.38 368.42 519.83 234.9"/><polygon class="cls-16" points="347.15 468.25 462.62 534.92 751.3 367.89 635.86 300.9 347.15 468.25"/><polygon class="cls-16" points="520.55 434.8 635.83 500.9 924.08 334 808.61 267.4 520.55 434.8"/><polygon class="cls-5" points="404.47 167.94 519.92 234.61 635.41 167.94 520.4 100.89 404.47 167.94"/><polygon class="cls-5" points="924.39 467.9 1040.17 400.9 982.43 367.57 866.65 434.27 924.39 467.9"/><polygon class="cls-12" points="231.7 201.85 404.91 301.28 404.91 367.94 231.7 267.94 231.7 201.85"/><polygon class="cls-15" points="751.08 167.24 866.54 233.9 808.81 267.9 693.34 200.9 751.08 167.24"/></g><g id="圖層_8" data-name="圖層 8"><polygon class="cls-17" points="520.04 633.03 519.83 766.74 808.75 600.37 808.75 467.07 520.04 633.03"/><polygon class="cls-6" points="1040.03 400.9 1040.03 467.57 924.54 534.24 924.56 467.57 1040.03 400.9"/><polygon class="cls-6" points="635.86 167.88 635.86 234.54 520.38 301.21 520.39 234.54 635.86 167.88"/><polygon class="cls-18" points="347.15 467.9 347.15 534.57 231.66 601.24 231.68 534.57 347.15 467.9"/><polygon class="cls-4" points="289.44 233.9 289.44 300.57 173.95 367.24 173.97 300.57 289.44 233.9"/><polygon class="cls-8" points="520.38 234.61 520.38 301.28 404.9 367.94 404.92 301.28 520.38 234.61"/><polygon class="cls-19" points="982.46 567.45 982.24 701.15 1097.98 633.89 1097.98 500.29 982.46 567.45"/><polygon class="cls-20" points="982.46 567.45 982.24 701.15 1097.98 633.89 1097.98 500.29 982.46 567.45"/><polygon class="cls-21" points="347.19 266.79 404.93 233.12 404.93 167.12 347.19 200.12 347.19 266.79"/><polygon class="cls-7" points="982.29 367.57 1040.03 333.9 1040.03 267.9 982.29 300.9 982.29 367.57"/><polygon class="cls-13" points="520.36 100.89 578.08 67.57 578.11 0.9 520.37 34.24 520.36 100.89"/><polygon class="cls-19" points="577.56 467.9 577.56 600.19 461.32 667.46 462.78 534.79 577.56 467.9"/><polygon class="cls-19" points="404.89 700.98 462.63 667.57 462.63 600.9 404.89 634.31 404.89 700.98"/></g><g id="圖層_9" data-name="圖層 9"><g class="cls-22"><text class="cls-23" transform="matrix(0.75, -0.43, 0.87, 0.5, 435.9, 496.78)"><tspan class="cls-24">探</tspan><tspan class="cls-25" x="84.66" y="0">索</tspan><tspan class="cls-24" x="169.26" y="0">天</tspan><tspan x="253.92" y="0">下</tspan></text><text class="cls-23" transform="matrix(0.75, -0.43, 0.87, 0.5, 634.85, 468.24)"><tspan class="cls-24">觸</tspan><tspan class="cls-25" x="84.66" y="0">手</tspan><tspan class="cls-24" x="169.26" y="0">可</tspan><tspan x="253.92" y="0">及</tspan></text><text class="cls-26" transform="matrix(0.75, -0.43, 0, 1, 541.62, 706.81)"><tspan class="cls-27">3</tspan><tspan x="40.41" y="0">D</tspan></text><text class="cls-28" transform="matrix(0.75, -0.43, 0, 1, 604.13, 667.73)"><tspan class="cls-29">知識挑戰</tspan><tspan x="206.18" y="0">賽</tspan></text><text class="cls-30" transform="matrix(0.75, -0.43, 0.87, 0.5, 285.66, 679.94)"><tspan class="cls-31">Dail</tspan><tspan x="85.59" y="0">y</tspan></text><text class="cls-32" transform="matrix(0.75, -0.43, 0, 1, 1018.14, 609.39)"><tspan class="cls-33">Di</tspan><tspan x="45.14" y="0">g</tspan></text><text class="cls-32" transform="matrix(0.75, -0.43, 0, 1, 1007.66, 657)"><tspan class="cls-33">Dee</tspan><tspan x="82.26" y="0">p</tspan></text><text class="cls-34" transform="matrix(0.75, 0.43, 0, 1, 831.07, 593.1)">Dialogu<tspan class="cls-35" x="167.15" y="0">e</tspan></text></g></g></svg>